<?xml version="1.0" encoding="utf-8"?>
<!-- Generator: Adobe Illustrator 27.5.0, SVG Export Plug-In . SVG Version: 6.00 Build 0)  -->
<svg version="1.1" id="Layer_1" xmlns="http://www.w3.org/2000/svg" xmlns:xlink="http://www.w3.org/1999/xlink" x="0px" y="0px"
	 viewBox="0 0 500 141" style="enable-background:new 0 0 500 141;" xml:space="preserve">
<style type="text/css">
	.st0{fill:#FFFFFF;}
</style>
<g>
	<g>
		<g>
			<path class="st0" d="M474.8,36.7c5.9,0,10.3,3.7,10.3,9.9c0,5.9-4.2,10.8-10.5,10.8c-7.2,0-10.2-5.6-10.2-10.3
				C464.5,42.7,467.6,36.7,474.8,36.7z M475.4,56.3c2.4,0,7.3-1.4,7.3-9c0-6.3-3.8-9.7-8-9.7c-4.4,0-7.7,2.9-7.7,8.6
				C467,52.3,470.7,56.3,475.4,56.3z"/>
			<path class="st0" d="M490.7,44.7c0-4.1,0-4.8-0.1-5.7c-0.1-0.9-0.3-1.3-1.1-1.5c-0.2-0.1-0.7-0.1-0.9-0.1c-0.1,0-0.2-0.1-0.2-0.2
				c0-0.2,0.1-0.2,0.4-0.2c0.6,0,1.3,0,1.9,0l1.1,0.1c0.5,0,5.9,0,6.5,0c0.5,0,0.9,0,1.2-0.1c0.2-0.1,0.3-0.2,0.4-0.2
				c0.1,0,0.2,0.1,0.2,0.2c0,0.2-0.1,0.5-0.2,1.2c0,0.3-0.1,1.4-0.1,1.7c0,0.1-0.1,0.3-0.2,0.3c-0.1,0-0.2-0.1-0.2-0.3
				c0-0.2-0.1-0.7-0.2-1c-0.2-0.3-0.8-0.8-1.8-0.8l-4-0.1c-0.2,0-0.2,0.1-0.2,0.3v7.3c0,0.2,0,0.2,0.2,0.2l3.4,0c0.4,0,0.8,0,1.2,0
				c0.6-0.1,1-0.1,1.2-0.5c0.1-0.1,0.2-0.3,0.3-0.3c0.1,0,0.1,0.1,0.1,0.2c0,0.2-0.1,0.6-0.2,1.5c-0.1,0.5-0.1,1.6-0.1,1.8
				c0,0.2,0,0.5-0.2,0.5c-0.1,0-0.2-0.1-0.2-0.2c0-0.3-0.1-0.6-0.2-0.9c-0.1-0.4-0.6-0.8-1.4-0.9c-0.7-0.1-3.5-0.1-4-0.1
				c-0.1,0-0.2,0.1-0.2,0.2v2.2c0,2.5,0,4.6,0.1,5.7c0.1,0.8,0.2,1.3,1,1.4c0.4,0.1,0.9,0.1,1.2,0.1c0.2,0,0.2,0.1,0.2,0.2
				c0,0.1-0.1,0.2-0.4,0.2c-1.4,0-3.1-0.1-3.2-0.1c-0.1,0-1.8,0.1-2.6,0.1c-0.3,0-0.4-0.1-0.4-0.2c0-0.1,0.1-0.2,0.2-0.2
				c0.2,0,0.6-0.1,0.8-0.1c0.5-0.1,0.7-0.7,0.8-1.4c0.1-1.1,0.1-3.2,0.1-5.7V44.7z"/>
		</g>
		<rect x="127.1" y="65.9" class="st0" width="372.4" height="1.4"/>
	</g>
	<g>
		<g>
			<g>
				<polygon class="st0" points="7.7,37.5 7.7,38 8.2,37.5 				"/>
				<polygon class="st0" points="11.5,37.5 7.7,41.3 7.7,42.3 12.5,37.5 				"/>
				<polygon class="st0" points="15.9,37.5 7.7,45.7 7.7,46.6 16.8,37.5 				"/>
				<polygon class="st0" points="20.2,37.5 7.7,50 7.7,51 21.2,37.5 				"/>
				<polygon class="st0" points="24.5,37.5 7.7,54.3 7.7,55.3 25.5,37.5 				"/>
				<polygon class="st0" points="28.9,37.5 7.7,58.7 7.7,59.6 29.9,37.5 				"/>
				<polygon class="st0" points="31.5,39.2 9.4,61.3 10.3,61.3 31.5,40.1 				"/>
				<polygon class="st0" points="31.5,43.5 13.7,61.3 14.7,61.3 31.5,44.5 				"/>
				<polygon class="st0" points="31.5,47.8 18,61.3 19,61.3 31.5,48.8 				"/>
				<polygon class="st0" points="31.5,52.2 22.4,61.3 23.3,61.3 31.5,53.1 				"/>
				<polygon class="st0" points="31.5,56.5 26.7,61.3 27.7,61.3 31.5,57.5 				"/>
				<polygon class="st0" points="31.5,60.8 31,61.3 31.5,61.3 				"/>
			</g>
			<g>
				<polygon class="st0" points="55.4,37.5 55.4,38 55.9,37.5 				"/>
				<polygon class="st0" points="59.2,37.5 55.4,41.3 55.4,42.3 60.2,37.5 				"/>
				<polygon class="st0" points="63.5,37.5 55.4,45.7 55.4,46.6 64.5,37.5 				"/>
				<polygon class="st0" points="67.9,37.5 55.4,50 55.4,51 68.9,37.5 				"/>
				<polygon class="st0" points="72.2,37.5 55.4,54.3 55.4,55.3 73.2,37.5 				"/>
				<polygon class="st0" points="76.5,37.5 55.4,58.7 55.4,59.6 77.5,37.5 				"/>
				<polygon class="st0" points="79.2,39.2 57,61.3 58,61.3 79.2,40.1 				"/>
				<polygon class="st0" points="79.2,43.5 61.4,61.3 62.4,61.3 79.2,44.5 				"/>
				<polygon class="st0" points="79.2,47.8 65.7,61.3 66.7,61.3 79.2,48.8 				"/>
				<polygon class="st0" points="79.2,52.2 70,61.3 71,61.3 79.2,53.1 				"/>
				<polygon class="st0" points="79.2,56.5 74.4,61.3 75.4,61.3 79.2,57.5 				"/>
				<polygon class="st0" points="79.2,60.8 78.7,61.3 79.2,61.3 				"/>
			</g>
			<g>
				<g>
					<polygon class="st0" points="31.5,61.3 31.5,61.8 32,61.3 					"/>
					<polygon class="st0" points="35.4,61.3 31.5,65.2 31.5,66.1 36.4,61.3 					"/>
					<polygon class="st0" points="39.7,61.3 31.5,69.5 31.5,70.5 40.7,61.3 					"/>
					<polygon class="st0" points="44,61.3 31.5,73.8 31.5,74.8 45,61.3 					"/>
					<polygon class="st0" points="48.4,61.3 31.5,78.2 31.5,79.1 49.4,61.3 					"/>
					<polygon class="st0" points="52.7,61.3 31.5,82.5 31.5,83.5 53.7,61.3 					"/>
					<polygon class="st0" points="55.4,63 33.2,85.1 34.2,85.1 55.4,64 					"/>
					<polygon class="st0" points="55.4,67.3 37.5,85.1 38.5,85.1 55.4,68.3 					"/>
					<polygon class="st0" points="55.4,71.7 41.9,85.1 42.9,85.1 55.4,72.6 					"/>
					<polygon class="st0" points="55.4,76 46.2,85.1 47.2,85.1 55.4,77 					"/>
					<polygon class="st0" points="55.4,80.3 50.5,85.1 51.5,85.1 55.4,81.3 					"/>
					<polygon class="st0" points="55.4,84.7 54.9,85.1 55.4,85.1 					"/>
				</g>
				<g>
					<polygon class="st0" points="79.2,61.3 79.2,61.8 79.7,61.3 					"/>
					<polygon class="st0" points="83,61.3 79.2,65.2 79.2,66.1 84,61.3 					"/>
					<polygon class="st0" points="87.4,61.3 79.2,69.5 79.2,70.5 88.4,61.3 					"/>
					<polygon class="st0" points="91.7,61.3 79.2,73.8 79.2,74.8 92.7,61.3 					"/>
					<polygon class="st0" points="96,61.3 79.2,78.2 79.2,79.1 97,61.3 					"/>
					<polygon class="st0" points="100.4,61.3 79.2,82.5 79.2,83.5 101.4,61.3 					"/>
					<polygon class="st0" points="103,63 80.9,85.1 81.9,85.1 103,64 					"/>
					<polygon class="st0" points="103,67.3 85.2,85.1 86.2,85.1 103,68.3 					"/>
					<polygon class="st0" points="103,71.7 89.5,85.1 90.5,85.1 103,72.6 					"/>
					<polygon class="st0" points="103,76 93.9,85.1 94.9,85.1 103,77 					"/>
					<polygon class="st0" points="103,80.3 98.2,85.1 99.2,85.1 103,81.3 					"/>
					<polygon class="st0" points="103,84.7 102.5,85.1 103,85.1 					"/>
				</g>
			</g>
			<polygon class="st0" points="79.2,109 79.2,109.5 79.7,109 			"/>
			<polygon class="st0" points="83,109 79.2,112.8 79.2,113.8 84,109 			"/>
			<polygon class="st0" points="87.4,109 79.2,117.2 79.2,118.1 88.4,109 			"/>
			<rect x="7.7" y="85.1" class="st0" width="0" height="0.5"/>
			<rect x="7.7" y="89" class="st0" width="0" height="1"/>
			<path class="st0" d="M7.7,93.3v1l0.2-0.2c0-0.3-0.1-0.6-0.1-0.9L7.7,93.3z"/>
			<path class="st0" d="M7.7,97.7v1l1-1c-0.1-0.3-0.2-0.5-0.2-0.8L7.7,97.7z"/>
			<path class="st0" d="M13.7,109h1l0.6-0.6c-0.2-0.2-0.3-0.4-0.5-0.5L13.7,109z"/>
			<path class="st0" d="M31.5,121.5v1l0.7-0.7C32,121.7,31.8,121.5,31.5,121.5L31.5,121.5z"/>
			<polygon class="st0" points="55,132.7 54.9,132.8 55.4,132.8 55.4,132.8 55.4,132.8 			"/>
			<path class="st0" d="M79.2,121.5v1l3.1-3.1c-0.9,0.6-1.8,1.2-2.7,1.7L79.2,121.5z"/>
			<g>
				<polygon class="st0" points="7.7,85.1 7.7,85.6 8.2,85.1 				"/>
			</g>
			<g>
				<polygon class="st0" points="11.5,85.1 7.7,89 7.7,90 12.5,85.1 				"/>
			</g>
			<g>
				<path class="st0" d="M15.9,85.1l-8.1,8.1c0,0.3,0.1,0.6,0.1,0.9l9-9H15.9z"/>
			</g>
			<g>
				<path class="st0" d="M20.2,85.1L8.5,96.8c0.1,0.3,0.2,0.5,0.2,0.8l12.5-12.5H20.2z"/>
			</g>
			<g>
				<path class="st0" d="M24.5,85.1L9.7,100c0.1,0.2,0.2,0.4,0.3,0.7l15.5-15.5H24.5z"/>
			</g>
			<g>
				<path class="st0" d="M28.9,85.1l-17.7,17.7c0.1,0.2,0.2,0.4,0.4,0.6l18.3-18.3H28.9z"/>
			</g>
			<g>
				<path class="st0" d="M31.5,86.8l-18.6,18.6c0.1,0.2,0.3,0.4,0.4,0.6l18.2-18.2V86.8z"/>
			</g>
			<g>
				<path class="st0" d="M31.5,91.2l-16.7,16.7c0.2,0.2,0.3,0.4,0.5,0.5l16.3-16.3V91.2z"/>
			</g>
			<g>
				<polygon class="st0" points="31.5,95.5 18,109 19,109 31.5,96.5 				"/>
			</g>
			<g>
				<polygon class="st0" points="31.5,99.8 22.4,109 23.3,109 31.5,100.8 				"/>
			</g>
			<g>
				<polygon class="st0" points="31.5,104.2 26.7,109 27.7,109 31.5,105.1 				"/>
			</g>
			<g>
				<polygon class="st0" points="31.5,108.5 31,109 31.5,109 				"/>
			</g>
			<g>
				<polygon class="st0" points="55.4,85.1 55.4,85.6 55.9,85.1 				"/>
			</g>
			<g>
				<polygon class="st0" points="59.2,85.1 55.4,89 55.4,90 60.2,85.1 				"/>
			</g>
			<g>
				<polygon class="st0" points="63.5,85.1 55.4,93.3 55.4,94.3 64.5,85.1 				"/>
			</g>
			<g>
				<polygon class="st0" points="67.9,85.1 55.4,97.7 55.4,98.6 68.9,85.1 				"/>
			</g>
			<g>
				<polygon class="st0" points="72.2,85.1 55.4,102 55.4,103 73.2,85.1 				"/>
			</g>
			<g>
				<polygon class="st0" points="76.5,85.1 55.4,106.3 55.4,107.3 77.5,85.1 				"/>
			</g>
			<g>
				<polygon class="st0" points="58,109 79.2,87.8 79.2,86.8 57,109 				"/>
			</g>
			<g>
				<polygon class="st0" points="62.4,109 79.2,92.1 79.2,91.2 61.4,109 				"/>
			</g>
			<g>
				<polygon class="st0" points="66.7,109 79.2,96.5 79.2,95.5 65.7,109 				"/>
			</g>
			<g>
				<polygon class="st0" points="71,109 79.2,100.8 79.2,99.8 70,109 				"/>
			</g>
			<g>
				<polygon class="st0" points="75.4,109 79.2,105.1 79.2,104.2 74.4,109 				"/>
			</g>
			<g>
				<polygon class="st0" points="79.2,109 79.2,108.5 78.7,109 				"/>
			</g>
			<g>
				<polygon class="st0" points="32,109 31.5,109 31.5,109.5 				"/>
			</g>
			<g>
				<polygon class="st0" points="31.5,113.8 36.4,109 35.4,109 31.5,112.8 				"/>
			</g>
			<g>
				<polygon class="st0" points="31.5,117.2 31.5,118.1 40.7,109 39.7,109 				"/>
			</g>
			<g>
				<path class="st0" d="M44,109l-12.4,12.4c0.2,0.1,0.4,0.2,0.6,0.4L45,109H44z"/>
			</g>
			<g>
				<path class="st0" d="M48.4,109l-14,14c0.2,0.1,0.4,0.2,0.6,0.4L49.4,109H48.4z"/>
			</g>
			<g>
				<path class="st0" d="M52.7,109l-15.6,15.6c0.2,0.1,0.4,0.2,0.6,0.3L53.7,109H52.7z"/>
			</g>
			<g>
				<path class="st0" d="M55.4,110.7L40,126.1c0.2,0.1,0.4,0.2,0.7,0.3l14.7-14.7V110.7z"/>
			</g>
			<g>
				<path class="st0" d="M55.4,115l-12.5,12.5c0.2,0.1,0.4,0.2,0.7,0.3L55.4,116V115z"/>
			</g>
			<g>
				<path class="st0" d="M55.4,119.3l-9.6,9.6c0.2,0.1,0.5,0.2,0.7,0.3l8.9-8.9V119.3z"/>
			</g>
			<g>
				<path class="st0" d="M55.4,123.7l-6.5,6.5c0.2,0.1,0.5,0.2,0.7,0.3l5.9-5.9V123.7z"/>
			</g>
			<g>
				<path class="st0" d="M55.4,128l-3.5,3.5c0.2,0.1,0.5,0.2,0.7,0.3l2.8-2.8V128z"/>
			</g>
			<g>
				<polygon class="st0" points="55,132.7 55.4,132.8 55.4,132.8 55.4,132.3 				"/>
			</g>
			<g>
				<path class="st0" d="M91.7,109l-12.2,12.2c0.9-0.6,1.8-1.2,2.7-1.7L92.7,109H91.7z"/>
			</g>
		</g>
		<g>
			<polygon class="st0" points="103,37 103,36.9 79.8,36.9 78.6,36.9 55.9,36.9 54.8,36.9 32.1,36.9 31,36.9 7.7,36.9 7.7,37 			"/>
		</g>
		<g>
			<path class="st0" d="M7.7,38H31v22.7H7.7v1.1H31v22.7H7.7v1.1H31v22.7h0H15.3c0.4,0.4,0.7,0.8,1.1,1.2h14.5V121
				c0.4,0.2,0.8,0.5,1.2,0.7v-12.1h22.6v23c0.1,0,0.2,0.1,0.2,0.1l0.4,0.1l0.4-0.1c0,0,0.1,0,0.2-0.1v-23h22.6v12.1
				c0.4-0.2,0.8-0.5,1.2-0.7v-11.4h14.5c0.4-0.4,0.8-0.8,1.1-1.2H79.8h0V85.7H103v-1.1H79.8V61.9H103v-1.1H79.8V38H103V37H7.7V38z
				 M55.9,38h22.7v22.7H55.9V38z M55.9,61.9h22.7v22.7H55.9V61.9z M55.9,85.7h22.7v22.7h0H56h0V85.7z M32.1,38h22.7v22.7H32.1V38z
				 M32.1,61.9h22.7v22.7H32.1V61.9z M32.1,85.7h22.7v22.7h0H32.1h0V85.7z"/>
		</g>
		<rect x="7.1" y="34.3" class="st0" width="96.3" height="1.1"/>
		<g>
			<path class="st0" d="M41.6,26.7c-0.5-0.3-1.1-0.2-1.5,0.2c-0.2,0.2-0.2,0.5,0,0.7c0.2,0.2,0.5,0.2,0.7,0c0.2-0.2,0.2-0.5,0-0.7
				c0,0,0,0,0,0C41,26.7,41.3,26.6,41.6,26.7z"/>
			<path class="st0" d="M41.2,27.6c-0.3,0.1-0.4,0.4-0.3,0.6c0.1,0.3,0.4,0.4,0.6,0.3s0.4-0.4,0.3-0.6c0,0,0,0,0,0
				c0.3,0,0.6,0.1,0.8,0.2C42.3,27.6,41.8,27.4,41.2,27.6z"/>
			<path class="st0" d="M41.9,28.7c-0.3-0.1-0.5,0.1-0.6,0.4c-0.1,0.3,0.1,0.5,0.4,0.6c0.3,0.1,0.5-0.1,0.6-0.4c0,0,0,0,0,0
				c0.3,0.1,0.5,0.3,0.5,0.6C42.8,29.3,42.4,28.8,41.9,28.7z"/>
			<path class="st0" d="M39.9,25.9c-0.5,0-1,0.4-1.2,0.9l0,0c-0.1,0.3,0.1,0.5,0.4,0.6c0.3,0.1,0.5-0.1,0.6-0.4
				c0.1-0.3-0.1-0.5-0.4-0.6c0,0,0,0,0,0C39.4,26.2,39.7,26,39.9,25.9z"/>
			<path class="st0" d="M37.8,12.2c0.2-0.1,0.3-0.4,0.2-0.7c-0.1-0.2-0.4-0.3-0.7-0.2c0,0,0,0,0,0c-0.1-0.3,0-0.6,0.1-0.8
				c-0.4,0.3-0.6,0.9-0.3,1.4C37.3,12.2,37.5,12.3,37.8,12.2z"/>
			<path class="st0" d="M38.6,11.7c0.3,0,0.5-0.2,0.5-0.5c0-0.3-0.2-0.5-0.5-0.5c0,0,0,0,0,0c0.1-0.3,0.2-0.5,0.5-0.6
				c-0.5,0.1-1,0.5-1,1.1C38.2,11.5,38.4,11.7,38.6,11.7z"/>
			<path class="st0" d="M39.6,11.7c0.2,0.1,0.5,0.1,0.7-0.1c0.1-0.2,0.1-0.5-0.1-0.7c0,0,0,0,0,0c0.2-0.2,0.5-0.3,0.7-0.3
				c-0.5-0.2-1.1,0-1.4,0.4C39.3,11.2,39.4,11.5,39.6,11.7z"/>
			<path class="st0" d="M36.6,13.2L36.6,13.2c0.2,0.1,0.5,0.1,0.7-0.1c0.1-0.2,0.1-0.5-0.1-0.7c-0.2-0.1-0.5-0.1-0.7,0.1
				c0,0,0,0,0,0c-0.2-0.2-0.3-0.5-0.3-0.7C36,12.3,36.2,12.9,36.6,13.2z"/>
			<path class="st0" d="M27.2,26.8c-0.4-0.3-1.1-0.3-1.5,0.1l0,0c-0.2,0.2-0.2,0.5,0,0.7c0.2,0.2,0.5,0.2,0.7,0
				c0.2-0.2,0.2-0.5,0-0.7c0,0,0,0,0,0C26.7,26.8,27,26.7,27.2,26.8z"/>
			<path class="st0" d="M27.1,28.6c0.3-0.1,0.4-0.3,0.4-0.6c0,0,0,0,0,0c0.3,0,0.6,0.1,0.7,0.3c-0.2-0.5-0.8-0.8-1.3-0.6
				c-0.3,0.1-0.4,0.3-0.4,0.6C26.5,28.6,26.8,28.7,27.1,28.6z"/>
			<path class="st0" d="M27.4,28.9c-0.3-0.1-0.5,0.1-0.6,0.3c-0.1,0.3,0.1,0.5,0.3,0.6c0.3,0.1,0.5-0.1,0.6-0.3c0,0,0,0,0,0
				c0.3,0.1,0.4,0.4,0.5,0.6C28.3,29.6,28,29,27.4,28.9z"/>
			<path class="st0" d="M24.4,26.8L24.4,26.8c-0.1,0.3,0.1,0.5,0.3,0.6c0.3,0.1,0.5-0.1,0.6-0.3c0.1-0.3-0.1-0.5-0.3-0.6
				c0,0,0,0,0,0c0.1-0.3,0.4-0.4,0.6-0.5C25.1,25.9,24.6,26.3,24.4,26.8z"/>
			<path class="st0" d="M15.6,28c-0.3,0-0.5,0.3-0.4,0.5c0,0.3,0.3,0.5,0.5,0.4c0.3,0,0.5-0.3,0.4-0.5c0,0,0,0,0,0
				c0.3,0,0.5,0.2,0.7,0.4C16.7,28.3,16.2,28,15.6,28z"/>
			<path class="st0" d="M16,29.3c-0.2-0.1-0.5,0-0.7,0.2c-0.1,0.2,0,0.5,0.2,0.7c0.2,0.1,0.5,0,0.7-0.2c0,0,0,0,0,0
				c0.2,0.2,0.4,0.4,0.4,0.7C16.7,30.1,16.5,29.5,16,29.3z"/>
			<path class="st0" d="M15,30.5c-0.2,0.2-0.3,0.5-0.1,0.7c0.2,0.2,0.5,0.3,0.7,0.1c0,0,0,0,0,0c0.1,0.3,0.1,0.5,0,0.8
				c0.4-0.4,0.4-1,0.1-1.5C15.5,30.3,15.2,30.3,15,30.5z"/>
			<path class="st0" d="M16.1,27.2c-0.4-0.4-1-0.4-1.5-0.1c-0.2,0.2-0.3,0.5-0.1,0.7c0.2,0.2,0.5,0.3,0.7,0.1
				c0.2-0.2,0.3-0.5,0.1-0.7c0,0,0,0,0,0C15.6,27.1,15.9,27.1,16.1,27.2z"/>
			<path class="st0" d="M22.2,23.4c0.3-0.2,0.6-0.4,0.9-0.7c0.1-0.1,0.2-0.2,0.2-0.3c-0.1,0-0.2,0-0.3,0c-0.4,0-0.8,0.1-1.1,0.2
				c-0.3,0.1-0.6,0.3-0.9,0.6c-0.1,0.1-0.2,0.3-0.3,0.4c0.1,0,0.3,0,0.4,0C21.5,23.6,21.9,23.5,22.2,23.4z"/>
			<path class="st0" d="M24.6,27.7c-0.2,0-0.4,0.1-0.6,0.2c-0.1,0.1-0.2,0.1-0.3,0.2c-0.6,0.1-1.3-0.9-1.3-1.6c0-0.5,0.5-1,1.1-1.4
				c0.6-0.3,1.2-0.9,1.2-1.7c0-0.2,0-0.4-0.1-0.6c-0.3-0.2-0.6-0.3-1-0.4c-0.5,0.8-1.4,1.4-2.5,1.5c-0.2,0-0.4,0-0.6,0
				c0,0.1-0.1,0.2-0.1,0.3c0,0.1-0.1,0.2-0.1,0.4c0.1,0.2,0.2,0.4,0.2,0.8c0,0.8-1.5,1.6-2.8,1.6c-0.3,0-0.6,0-0.9-0.1
				c-0.1,0-0.2-0.1-0.3-0.2c0.3,0.6,0.9,1.1,1.6,1.4c0.3,0.1,0.6,0.2,0.9,0.2c0,0,0,0,0.1,0c-0.4,0.5-0.9,0.7-1.5,0.7
				c-0.1,0-0.2,0-0.3,0c0.4,0.4,1,0.6,1.7,0.6c0.3,0,0.6,0,0.9-0.1c-0.1,0.5-0.5,0.9-1,1.1c-0.1,0-0.2,0.1-0.3,0.1
				c0.5,0.2,1,0.2,1.5,0c0.2-0.1,0.5-0.2,0.6-0.3c0,0.4-0.2,0.9-0.5,1.1c-0.1,0-0.1,0.1-0.2,0.1c0.4,0,0.9-0.1,1.2-0.4
				c0.2-0.1,0.3-0.3,0.4-0.5c0.1,0.3,0.1,0.7-0.1,1.1c0,0.1-0.1,0.1-0.1,0.2c0.3-0.1,0.7-0.4,0.9-0.7c0.1-0.1,0.1-0.2,0.1-0.3
				c0.1,0,0.2,0.1,0.3,0.1c0.2,0,0.4,0,0.5,0c0.1,0,0.3-0.1,0.4-0.1c-0.2-0.2-0.3-0.5-0.3-0.5s0.6,0.4,1.2,0.6c0.2,0,0.4,0.1,0.6,0
				c0.9-0.1,1.5-1,1.4-1.9C26.4,28.2,25.5,27.5,24.6,27.7z"/>
			<path class="st0" d="M39,27.7c-0.1,0-0.2,0.1-0.4,0.1v0c0,0-0.1,0-0.1,0.1c-0.8,0.2-3.1-1.7-3.7-4.6c0.9,0,1.8-0.3,2.6-0.8
				c0.4,0.5,0.6,1.1,0.6,1.7c0,0.1,0,0.3-0.1,0.4c0.5-0.6,0.9-1.3,0.9-2.2c0-0.4,0-0.7-0.1-1.1c0,0,0,0,0,0c0.6,0.2,1.1,0.7,1.3,1.4
				c0,0.1,0.1,0.2,0.1,0.4c0.3-0.6,0.3-1.3,0.1-2c-0.1-0.3-0.2-0.6-0.4-0.9c0.6,0,1.1,0.2,1.5,0.7c0.1,0.1,0.1,0.2,0.2,0.3
				c0-0.6-0.1-1.1-0.5-1.6c-0.2-0.2-0.4-0.4-0.6-0.6c0.4-0.2,1-0.1,1.4,0.1c0.1,0,0.1,0.1,0.2,0.2c-0.1-0.5-0.4-0.9-0.9-1.1
				c-0.2-0.1-0.4-0.2-0.6-0.3c0,0,0,0,0,0c0.3-0.3,0.7-0.4,1.1-0.3c0.1,0,0.1,0,0.2,0.1c-0.2-0.3-0.6-0.6-1-0.7c-0.1,0-0.1,0-0.2,0
				c0,0,0,0,0,0c0.5-0.3,0.7-0.8,0.7-1.3c0-0.2-0.1-0.4-0.2-0.5c-0.3-0.5-0.4-1.1-0.4-1.7l0,0c0-0.8-0.6-1.6-1.4-1.7
				c-0.9-0.1-1.8,0.5-1.9,1.4c-0.1,0.5,0.1,0.9,0.3,1.3l0,0c0.4,0.5,1.1,0.8,1.1,0.8s-0.6,0.1-1-0.3c0.3,2-1.4,4.8-3.8,4.8
				c0,0.1,0,0.2,0,0.3c-0.1,1-0.5,1.4-0.9,1.6c-0.1,0-0.2,0.1-0.4,0.1c-0.5,0-0.9-0.3-1.4-0.8c-0.1-0.1-0.2-0.3-0.3-0.4
				c0,0,0,0.1,0,0.1l0.3,0.6c0,0-1.3-0.3-1.6-1.5c0,0.1,0,0.2,0,0.2l0.2,0.7c0,0-1.3-0.6-1.8-2l0,0.4c0,0-0.8-0.7-1.1-1.7
				c-0.1,0.6-0.3,1.5-1.5,1.5c-1.2,0-5.1,0-5.1,0c-1.7,0-3.5,0-5.2,0c-0.5,0-1-0.3-1.2-0.8c-0.3-0.7,0-1.5,0.7-1.8
				c0.7-0.3,1.5,0.1,2.1,0.4c0.6,0.3,1.2,0.7,1.8,1.1c0.6,0.3,1.3,0.6,2.1,0.7c0.9,0,1.8-0.3,2.5-0.9c1-1,1.3-2.5,0.7-3.8
				c-0.3-0.6-0.7-1-1.2-1.4c-0.6-0.4-1.3-0.6-2-0.5c-0.4,0.1-0.7,0.1-1.1,0.2c-0.3,0-0.7,0.1-1,0.1c-0.6,0-1.2-0.4-1.4-1l0,0
				c-0.1-0.2-0.1-0.6-0.1-0.6s0,0.2,0,0.5c0,0.1,0,0.1,0,0.2l0,0c0,0,0,0,0,0c0,0.2,0.1,0.3,0.1,0.5c0.2,0.4,0.4,0.7,0.8,0.9
				c0.2,0.1,0.4,0.2,0.6,0.2c-0.3,0.5-0.9,0.9-1.6,1.1c-0.1,0-0.2,0.1-0.4,0.1c0.6,0.2,1.3,0.2,2,0c0.2-0.1,0.5-0.1,0.7-0.2
				c0,0.3,0,0.5,0.1,0.8c0.2,0.6,0.7,1,1.2,1.1c0.1,0,0.3,0,0.4,0c0,0,0,0,0,0c0,0,0,0,0,0c0,0,0.1,0,0.1,0c0.1,0,0.3,0,0.3,0
				s-0.4,0-0.7-0.2c-0.3-0.2-0.6-0.5-0.7-0.9c-0.1-0.4,0-0.8,0.3-1.2c0.1-0.1,0.3-0.2,0.4-0.3c0.2-0.1,0.3,0,0.5,0
				c0.4,0.1,0.8,0.3,1.1,0.6c0.3,0.3,0.5,0.7,0.5,1.1c0.1,1-0.6,2.1-1.7,2.2c-0.7,0.1-1.4-0.3-2-0.7c-0.6-0.4-1.2-0.8-1.8-1.1
				c-0.6-0.3-1.3-0.6-2-0.6c-0.7,0-1.5,0.3-2,0.8c-0.3,0.2-0.5,0.5-0.7,0.8c-0.5,0.8-0.5,1.8-0.2,2.7c0.3,0.8,0.8,1.4,1.6,1.8
				c0.3,0.2,0.7,0.3,1,0.3c0.3,0,0.6,0,0.9,0c0.5,0,1,0,1.5,0c0.3,0,0.6,0,0.8,0c-0.5,0.9-1.3,2-2.3,2c-2.4,0-3.6-1.3-3.5-2.7
				c0-0.1,0-0.3,0.1-0.4c-0.5,0.5-0.8,1.2-0.9,2c0,0.4,0,0.7,0.1,1c-0.6-0.2-1-0.7-1.2-1.3c0-0.1,0-0.2-0.1-0.3
				c-0.3,0.6-0.3,1.2-0.2,1.8c0.1,0.3,0.2,0.6,0.4,0.8c-0.5,0-1-0.3-1.3-0.7c-0.1-0.1-0.1-0.2-0.1-0.2c0,0.5,0.1,1.1,0.4,1.5
				c0.1,0.2,0.3,0.4,0.5,0.5c-0.4,0.1-0.9,0.1-1.3-0.2c-0.1,0-0.1-0.1-0.2-0.2c0.1,0.4,0.4,0.8,0.8,1.1c0.2,0.1,0.4,0.2,0.6,0.3
				c-0.3,0.2-0.7,0.3-1.1,0.2c-0.1,0-0.1,0-0.2-0.1c0.2,0.3,0.5,0.5,0.9,0.6c0.3,0.1,0.6,0.1,0.8,0c-0.2,0.2-0.2,0.5-0.2,0.8
				c0,0.4,0.2,0.8,0.5,1c0.2,0.2,0.4,0.3,0.5,0.5c0.1-0.3,0.3-0.6,0.3-0.6s-0.1,0.7,0.2,1.3c0.1,0.3,0.4,0.6,0.7,0.8
				c0.8,0.5,1.8,0.2,2.3-0.6c0.5-0.8,0.2-1.8-0.6-2.3c-0.1,0-0.1-0.1-0.2-0.1l0,0c-0.1,0-0.1-0.1-0.2-0.1c-1.2-0.6,0-2.6,1.3-2.6
				c0.9,0,0.9,1.3,2.7,1.3c1,0,1.7-0.7,2-1.4c0.1-0.1,0.1-0.2,0.1-0.3c0-0.1,0-0.1,0.1-0.2c0,0,0,0,0-0.1c0-0.1,0-0.2,0.1-0.2
				c0-0.1,0.1-0.1,0.1-0.2c0.5-1.1,1.6-1.9,2.9-1.9c0.6,0,1.1,0.2,1.6,0.4c1.7,0.9,3.6,2.7,7.1,2.7c0,0,0,0,0.1,0
				c-0.7,0.5-1.5,0.6-2.3,0.3c-0.1,0-0.3-0.1-0.4-0.2c0.4,0.7,1,1.2,1.8,1.5c0.4,0.1,0.7,0.2,1.1,0.2c-0.4,0.5-1,0.9-1.7,0.9
				c-0.1,0-0.2,0-0.4,0c0.5,0.4,1.2,0.7,1.9,0.7c0.3,0,0.6,0,0.9-0.1c-0.2,0.5-0.6,1-1.1,1.2c-0.1,0-0.2,0.1-0.3,0.1
				c0.5,0.2,1.1,0.2,1.7,0c0.3-0.1,0.5-0.2,0.7-0.4c0,0.5-0.2,1-0.6,1.3c-0.1,0.1-0.1,0.1-0.2,0.1c0.5,0,1-0.2,1.4-0.5
				c0.2-0.2,0.3-0.3,0.5-0.5c0.2,0.4,0.2,0.8-0.1,1.2c0,0.1-0.1,0.1-0.1,0.2c0.4-0.1,0.7-0.4,0.9-0.8c0-0.1,0.1-0.1,0.1-0.2
				c0.3,0.4,0.8,0.7,1.3,0.6c0,0,0.1,0,0.1,0l0,0c0.4-0.1,0.7-0.1,1.1-0.1c-0.2-0.2-0.2-0.4-0.2-0.4s0.5,0.4,1,0.6c0,0,0,0,0.1,0
				l0,0c0.3,0.1,0.6,0.1,0.9,0c0.9-0.2,1.5-1.1,1.3-2S39.9,27.5,39,27.7z M19.9,14.4c-0.1-0.4-0.1-1-0.1-1.2c0,0-0.5,0.4-1.7,0.6
				c0.1,0,0.4-0.3,0.7-0.5c0.3-0.3,0.4-0.6,0.4-0.6c-0.9-0.1-1.2-0.5-1.2-0.5c1,0.5,2.8,0.3,2.8,0.3S19.8,13.2,19.9,14.4z"/>
			<g>
				<path class="st0" d="M31.2,16c0,0.1,0,0.1,0,0.2c0.4,1,0.7,1.9,0.7,1.9c0,0-0.3-0.9-0.6-1.9C31.3,16.1,31.2,16,31.2,16z"/>
				<path class="st0" d="M35.1,15.6c0-0.9-0.6-1.6-1-1.9c0-0.1-0.1-0.2-0.1-0.3c-0.1-0.2-0.1-0.3-0.2-0.5c0.5-0.6,0.7-1.2,0.5-1.5
					c-0.2-0.2-0.5-0.2-1,0c-0.4,0.1-0.8,0.1-1.1,0c-0.2-0.1-0.3-0.1-0.5-0.2c-0.1,0-0.2-0.1-0.2-0.3l0-0.4L31.1,11
					c-0.1,0.1-0.2,0.1-0.3,0.1c0,0,0,0-0.1,0c-0.1,0-0.2-0.1-0.2-0.1l-0.2-0.4L30.3,11c0,0.1-0.1,0.2-0.2,0.2c0,0,0,0-0.1,0
					c-0.1,0-0.3,0-0.4-0.1l-0.3-0.3l0,0.4c0,0.1-0.1,0.3-0.2,0.4c0,0,0,0-0.1,0c-0.1,0.1-0.2,0.1-0.3,0l-0.4-0.2l0.1,0.4
					c0,0.1,0,0.2-0.1,0.2c0,0,0,0,0,0c-0.1,0.1-0.2,0.1-0.3,0.1L27.6,12l0.2,0.3c0.1,0.1,0.1,0.2,0,0.3c-0.1,0.2-0.2,0.3-0.3,0.5
					c-0.2,0.4-0.5,0.6-0.8,0.7C26.3,14,26,14.2,26,14.5c0,0.4,0.5,0.7,1.3,0.8c0,0.2,0.1,0.3,0.1,0.5c0,0.1,0.1,0.2,0.1,0.3
					c-0.1,0.6-0.2,1.4,0.4,2.1c0,0-0.2-0.9,0.5-0.8c0,0-0.3,1.4,1.2,2.6c0,0-0.2-1,0.4-0.8c0,0,0.1,0.9,1,1.6c0,0-0.3-0.5,0.2-0.8
					c0,0,1,1.8,2,1.4c1-0.4,0.6-2.4,0.6-2.4c0.5-0.1,0.6,0.5,0.6,0.5c0.3-1.1-0.3-1.8-0.3-1.8c0.3-0.5,0.8,0.3,0.8,0.3
					c0.4-2-0.8-2.8-0.8-2.8C34.7,14.9,35.1,15.6,35.1,15.6z M26.9,15c-0.4-0.1-0.7-0.3-0.7-0.5c0-0.2,0.4-0.3,0.8-0.2
					c0,0,0.1,0,0.1,0l-0.2,0l0.1,0l-0.3,0.1l0.3,0l-0.4,0.2l0.4-0.1l-0.2,0.2l0.3-0.2l-0.1,0.1l0.1-0.1c0,0.1,0,0.2,0,0.4
					C27.2,15,27.1,15,26.9,15z M31.5,14.1C31.5,14.1,31.5,14,31.5,14.1c0-0.1,0.1-0.2,0.1-0.3c0-0.1,0-0.2,0-0.3c0,0,0-0.1,0-0.1
					l0-0.1l0.1,0c0.1-0.1,0.2-0.2,0.3-0.2l0.3-0.4L32,12.9c0,0,0.1,0,0.1-0.1c0,0,0.1,0,0.1,0l0,0l0,0c0,0,0,0,0,0c0,0,0,0,0.1,0
					c0,0,0,0,0,0c0,0,0,0,0,0c0,0,0,0,0,0c0,0,0,0,0,0c0,0,0,0,0,0l0.1-0.2l0.1,0.2c0,0,0,0.1,0,0.1c0,0,0,0,0,0l0,0
					c0.1,0.4,0,0.9-0.3,1.1c0,0-0.1,0.1-0.1,0.1l-0.1-0.1c0.2-0.2,0.4-0.5,0.3-0.8c-0.1,0.3-0.3,0.5-0.5,0.6c0,0.1,0,0.1,0,0.2l0,0
					c0,0,0,0,0,0c0,0,0,0,0,0.1l0,0.1l-0.1,0c-0.1,0-0.2,0.1-0.4,0.1l-0.1,0L31.5,14.1z M28.1,14.5L28.1,14.5
					C28.1,14.5,28.1,14.5,28.1,14.5c0,0,0-0.1,0-0.1L28,14.2l0.2,0.1c0,0,0,0,0.1,0c0,0,0,0,0,0c0,0,0,0,0.1,0c0,0,0,0,0,0
					c0,0,0,0,0,0c0,0,0,0,0,0c0,0,0,0,0,0l0,0l0,0c0,0,0.1,0,0.1,0c0,0,0.1,0,0.1,0l-0.3-0.2l0.5,0.1c0.1,0,0.2,0,0.4,0l0.1,0l0,0.1
					c0,0,0,0.1,0.1,0.1c0.1,0.1,0.1,0.2,0.2,0.3c0.1,0.1,0.1,0.1,0.2,0.2c0,0,0,0,0.1,0l0.1,0.1l-0.1,0.1c-0.1,0.1-0.2,0.2-0.3,0.2
					l-0.1,0l0-0.1c0,0,0,0,0-0.1c0,0,0,0,0,0l0,0c0-0.1-0.1-0.1-0.1-0.2c-0.3,0.1-0.6,0-0.8-0.1c0.2,0.2,0.5,0.4,0.8,0.4l0,0.2
					c0,0-0.1,0-0.1,0C28.6,15.1,28.2,14.9,28.1,14.5z M33,15.8c-0.1,0.3-0.3,0.5-0.6,0.6c0,0-0.1,0-0.1,0c0.2,1.1,0.2,2-0.2,2.2
					c-0.4,0.1-1-0.5-1.6-1.5c0,0,0,0-0.1,0c-0.1,0-0.2,0.1-0.4,0.1c-0.4,0-0.8-0.3-1-0.7c0,0,0,0,0,0c0,0,0,0,0,0
					C29.1,16.2,29,16,29,16s0.1,0.2,0.2,0.3c0.2,0.4,0.7,0.7,1.2,0.5c0.5-0.2,0.7-0.7,0.5-1.2c0,0,0,0,0,0c-0.1-0.1-0.3-0.2-0.4-0.2
					c0,0,0,0,0,0l0,0c-0.3,0-0.5-0.2-0.5-0.3c0-0.1,0-0.1,0-0.2l0.1-0.1l0,0.2c0,0,0,0,0,0c0,0.1,0.1,0.2,0.3,0.2c0,0,0-0.1,0-0.1
					c0.1-0.2,0.3-0.3,0.5-0.2c0.2-0.2,0.4-0.2,0.5-0.1c0,0,0.1,0,0.1,0.1c0.1-0.1,0.1-0.3,0.1-0.4c0,0,0,0,0,0l-0.1-0.1l0.1,0.1
					c0.1,0,0.1,0.1,0.1,0.1c0.1,0.1,0,0.4-0.2,0.6c0,0,0,0,0,0c0,0,0,0,0,0c-0.1,0.1-0.3,0.3-0.2,0.4c0,0,0,0,0,0
					c0.2,0.5,0.7,0.7,1.2,0.5c0.4-0.2,0.7-0.6,0.6-1.1c0-0.1-0.1-0.4-0.1-0.4s0.1,0.2,0.2,0.3c0,0,0,0,0,0c0,0,0,0,0,0c0,0,0,0,0,0
					c0,0,0,0,0,0c0,0,0,0.1,0,0.1C33.2,15.3,33.2,15.6,33,15.8z M33.6,12.7c-0.1-0.1-0.1-0.2-0.2-0.3l0.1,0l-0.1,0l0.3-0.1l-0.3,0
					l0.4-0.2l-0.4,0.1l0.2-0.2l-0.3,0.1l0.1-0.1l-0.1,0.1c0,0,0-0.1,0.1-0.1c0.3-0.3,0.6-0.5,0.8-0.3c0.2,0.1,0.1,0.5-0.2,0.8
					C33.8,12.6,33.7,12.7,33.6,12.7z"/>
			</g>
		</g>
		<g>
			<path class="st0" d="M69.2,26.7c0.5-0.3,1.1-0.2,1.5,0.2c0.2,0.2,0.2,0.5,0,0.7c-0.2,0.2-0.5,0.2-0.7,0c-0.2-0.2-0.2-0.5,0-0.7
				c0,0,0,0,0,0C69.7,26.7,69.4,26.6,69.2,26.7z"/>
			<path class="st0" d="M69.5,27.6c0.3,0.1,0.4,0.4,0.3,0.6c-0.1,0.3-0.4,0.4-0.6,0.3c-0.3-0.1-0.4-0.4-0.3-0.6c0,0,0,0,0,0
				c-0.3,0-0.6,0.1-0.8,0.2C68.4,27.6,68.9,27.4,69.5,27.6z"/>
			<path class="st0" d="M68.8,28.7c0.3-0.1,0.5,0.1,0.6,0.4c0.1,0.3-0.1,0.5-0.4,0.6c-0.3,0.1-0.5-0.1-0.6-0.4c0,0,0,0,0,0
				c-0.3,0.1-0.5,0.3-0.5,0.6C67.9,29.3,68.3,28.8,68.8,28.7z"/>
			<path class="st0" d="M70.8,25.9c0.5,0,1,0.4,1.2,0.9l0,0c0.1,0.3-0.1,0.5-0.4,0.6c-0.3,0.1-0.5-0.1-0.6-0.4
				c-0.1-0.3,0.1-0.5,0.4-0.6c0,0,0,0,0,0C71.3,26.2,71,26,70.8,25.9z"/>
			<path class="st0" d="M72.9,12.2c-0.2-0.1-0.3-0.4-0.2-0.7c0.1-0.2,0.4-0.3,0.7-0.2c0,0,0,0,0,0c0.1-0.3,0-0.6-0.1-0.8
				c0.4,0.3,0.6,0.9,0.3,1.4C73.5,12.2,73.2,12.3,72.9,12.2z"/>
			<path class="st0" d="M72.1,11.7c-0.3,0-0.5-0.2-0.5-0.5c0-0.3,0.2-0.5,0.5-0.5c0,0,0,0,0,0c-0.1-0.3-0.2-0.5-0.5-0.6
				c0.5,0.1,1,0.5,1,1.1C72.6,11.5,72.3,11.7,72.1,11.7z"/>
			<path class="st0" d="M71.1,11.7c-0.2,0.1-0.5,0.1-0.7-0.1c-0.1-0.2-0.1-0.5,0.1-0.7c0,0,0,0,0,0c-0.2-0.2-0.5-0.3-0.7-0.3
				c0.5-0.2,1.1,0,1.4,0.4C71.4,11.2,71.3,11.5,71.1,11.7z"/>
			<path class="st0" d="M74.1,13.2L74.1,13.2c-0.2,0.1-0.5,0.1-0.7-0.1c-0.1-0.2-0.1-0.5,0.1-0.7c0.2-0.1,0.5-0.1,0.7,0.1
				c0,0,0,0,0,0c0.2-0.2,0.3-0.5,0.3-0.7C74.7,12.3,74.6,12.9,74.1,13.2z"/>
			<path class="st0" d="M83.5,26.8c0.4-0.3,1.1-0.3,1.5,0.1l0,0c0.2,0.2,0.2,0.5,0,0.7c-0.2,0.2-0.5,0.2-0.7,0s-0.2-0.5,0-0.7
				c0,0,0,0,0,0C84,26.8,83.8,26.7,83.5,26.8z"/>
			<path class="st0" d="M83.6,28.6c-0.3-0.1-0.4-0.3-0.4-0.6c0,0,0,0,0,0c-0.3,0-0.6,0.1-0.7,0.3c0.2-0.5,0.8-0.8,1.3-0.6
				c0.3,0.1,0.4,0.3,0.4,0.6C84.2,28.6,83.9,28.7,83.6,28.6z"/>
			<path class="st0" d="M83.3,28.9c0.3-0.1,0.5,0.1,0.6,0.3c0.1,0.3-0.1,0.5-0.3,0.6c-0.3,0.1-0.5-0.1-0.6-0.3c0,0,0,0,0,0
				c-0.3,0.1-0.4,0.4-0.5,0.6C82.4,29.6,82.8,29,83.3,28.9z"/>
			<path class="st0" d="M86.3,26.8L86.3,26.8c0.1,0.3-0.1,0.5-0.3,0.6c-0.3,0.1-0.5-0.1-0.6-0.3c-0.1-0.3,0.1-0.5,0.3-0.6
				c0,0,0,0,0,0c-0.1-0.3-0.4-0.4-0.6-0.5C85.6,25.9,86.1,26.3,86.3,26.8z"/>
			<path class="st0" d="M95.1,28c0.3,0,0.5,0.3,0.4,0.5c0,0.3-0.3,0.5-0.5,0.4c-0.3,0-0.5-0.3-0.4-0.5c0,0,0,0,0,0
				c-0.3,0-0.5,0.2-0.7,0.4C94.1,28.3,94.6,28,95.1,28z"/>
			<path class="st0" d="M94.8,29.3c0.2-0.1,0.5,0,0.7,0.2c0.1,0.2,0,0.5-0.2,0.7c-0.2,0.1-0.5,0-0.7-0.2c0,0,0,0,0,0
				c-0.2,0.2-0.4,0.4-0.4,0.7C94,30.1,94.2,29.5,94.8,29.3z"/>
			<path class="st0" d="M95.8,30.5c0.2,0.2,0.3,0.5,0.1,0.7c-0.2,0.2-0.5,0.3-0.7,0.1c0,0,0,0,0,0c-0.1,0.3-0.1,0.5,0,0.8
				c-0.4-0.4-0.4-1-0.1-1.5C95.2,30.3,95.5,30.3,95.8,30.5z"/>
			<path class="st0" d="M94.6,27.2c0.4-0.4,1-0.4,1.5-0.1c0.2,0.2,0.3,0.5,0.1,0.7c-0.2,0.2-0.5,0.3-0.7,0.1s-0.3-0.5-0.1-0.7
				c0,0,0,0,0,0C95.1,27.1,94.9,27.1,94.6,27.2z"/>
			<path class="st0" d="M88.5,23.4c-0.3-0.2-0.6-0.4-0.9-0.7c-0.1-0.1-0.2-0.2-0.2-0.3c0.1,0,0.2,0,0.3,0c0.4,0,0.8,0.1,1.1,0.2
				c0.3,0.1,0.6,0.3,0.9,0.6c0.1,0.1,0.2,0.3,0.3,0.4c-0.1,0-0.3,0-0.4,0C89.2,23.6,88.8,23.5,88.5,23.4z"/>
			<path class="st0" d="M86.1,27.7c0.2,0,0.4,0.1,0.6,0.2c0.1,0.1,0.2,0.1,0.3,0.2c0.6,0.1,1.3-0.9,1.3-1.6c0-0.5-0.5-1-1.1-1.4
				c-0.6-0.3-1.2-0.9-1.2-1.7c0-0.2,0-0.4,0.1-0.6c0.3-0.2,0.6-0.3,1-0.4c0.5,0.8,1.4,1.4,2.5,1.5c0.2,0,0.4,0,0.6,0
				c0,0.1,0.1,0.2,0.1,0.3c0,0.1,0.1,0.2,0.1,0.4c-0.1,0.2-0.2,0.4-0.2,0.8c0,0.8,1.5,1.6,2.8,1.6c0.3,0,0.6,0,0.9-0.1
				c0.1,0,0.2-0.1,0.3-0.2c-0.3,0.6-0.9,1.1-1.6,1.4c-0.3,0.1-0.6,0.2-0.9,0.2c0,0,0,0-0.1,0c0.4,0.5,0.9,0.7,1.5,0.7
				c0.1,0,0.2,0,0.3,0c-0.4,0.4-1,0.6-1.7,0.6c-0.3,0-0.6,0-0.9-0.1c0.1,0.5,0.5,0.9,1,1.1c0.1,0,0.2,0.1,0.3,0.1
				c-0.5,0.2-1,0.2-1.5,0c-0.2-0.1-0.5-0.2-0.6-0.3c0,0.4,0.2,0.9,0.5,1.1c0.1,0,0.1,0.1,0.2,0.1c-0.4,0-0.9-0.1-1.2-0.4
				c-0.2-0.1-0.3-0.3-0.4-0.5c-0.1,0.3-0.1,0.7,0.1,1.1c0,0.1,0.1,0.1,0.1,0.2c-0.3-0.1-0.7-0.4-0.9-0.7c-0.1-0.1-0.1-0.2-0.1-0.3
				c-0.1,0-0.2,0.1-0.3,0.1c-0.2,0-0.4,0-0.5,0c-0.1,0-0.3-0.1-0.4-0.1c0.2-0.2,0.3-0.5,0.3-0.5s-0.6,0.4-1.2,0.6
				c-0.2,0-0.4,0.1-0.6,0c-0.9-0.1-1.5-1-1.4-1.9C84.3,28.2,85.2,27.5,86.1,27.7z"/>
			<path class="st0" d="M69.7,29c-0.2,0.9,0.4,1.8,1.3,2c0.3,0.1,0.6,0.1,0.9,0l0,0c0,0,0,0,0.1,0c0.6-0.2,1-0.6,1-0.6
				s0,0.2-0.2,0.4c0.4,0,0.7,0,1.1,0.1l0,0c0,0,0.1,0,0.1,0c0.5,0.1,1.1-0.2,1.3-0.6c0,0.1,0.1,0.1,0.1,0.2c0.2,0.4,0.6,0.6,0.9,0.8
				c0-0.1-0.1-0.1-0.1-0.2c-0.2-0.4-0.2-0.8-0.1-1.2c0.1,0.2,0.3,0.4,0.5,0.5c0.4,0.3,0.9,0.5,1.4,0.5c-0.1,0-0.1-0.1-0.2-0.1
				c-0.4-0.3-0.6-0.8-0.6-1.3c0.2,0.2,0.4,0.3,0.7,0.4c0.6,0.2,1.2,0.2,1.7,0c-0.1,0-0.2,0-0.3-0.1c-0.6-0.2-1-0.7-1.1-1.2
				c0.3,0.1,0.6,0.2,0.9,0.1c0.7,0,1.4-0.3,1.9-0.7c-0.1,0-0.2,0-0.4,0c-0.7,0-1.3-0.3-1.7-0.9c0.4,0,0.7-0.1,1.1-0.2
				c0.8-0.3,1.4-0.8,1.8-1.5c-0.1,0.1-0.2,0.1-0.4,0.2c-0.8,0.3-1.7,0.2-2.3-0.3c0,0,0,0,0.1,0c3.5,0,5.4-1.8,7.1-2.7
				c0.5-0.3,1-0.4,1.6-0.4c1.3,0,2.4,0.8,2.9,1.9c0,0.1,0.1,0.2,0.1,0.2c0,0.1,0,0.1,0.1,0.2c0,0,0,0,0,0.1c0,0.1,0,0.1,0.1,0.2
				c0,0.1,0.1,0.2,0.1,0.3c0.4,0.6,1.1,1.4,2,1.4c1.8,0,1.7-1.3,2.7-1.3c1.3,0,2.5,2,1.3,2.6c-0.1,0-0.1,0.1-0.2,0.1l0,0
				c-0.1,0-0.1,0.1-0.2,0.1c-0.8,0.5-1.1,1.5-0.6,2.3c0.5,0.8,1.5,1.1,2.3,0.6c0.3-0.2,0.6-0.5,0.7-0.8c0.2-0.6,0.2-1.3,0.2-1.3
				s0.2,0.2,0.3,0.6c0.2-0.2,0.3-0.4,0.5-0.5c0.3-0.2,0.5-0.6,0.5-1c0-0.3-0.1-0.6-0.2-0.8c0.3,0.1,0.6,0.1,0.8,0
				c0.4-0.1,0.7-0.3,0.9-0.6c-0.1,0-0.1,0.1-0.2,0.1c-0.4,0.1-0.8,0-1.1-0.2c0.2-0.1,0.4-0.2,0.6-0.3c0.4-0.3,0.7-0.7,0.8-1.1
				c-0.1,0.1-0.1,0.1-0.2,0.2c-0.4,0.3-0.9,0.3-1.3,0.2c0.2-0.1,0.4-0.3,0.5-0.5c0.3-0.5,0.5-1,0.4-1.5c0,0.1-0.1,0.2-0.1,0.2
				c-0.3,0.5-0.8,0.7-1.3,0.7c0.2-0.2,0.3-0.5,0.4-0.8c0.2-0.6,0.1-1.3-0.2-1.8c0,0.1,0,0.2-0.1,0.3c-0.2,0.6-0.6,1.1-1.2,1.3
				c0.1-0.3,0.1-0.7,0.1-1c-0.1-0.8-0.4-1.5-0.9-2c0,0.1,0.1,0.3,0.1,0.4c0.1,1.4-1.2,2.7-3.5,2.7c-1,0-1.8-1.1-2.3-2
				c0.3,0,0.6,0,0.8,0c0.5,0,1,0,1.5,0c0.3,0,0.6,0,0.9,0c0.4,0,0.7-0.2,1-0.3c0.7-0.4,1.3-1,1.6-1.8c0.3-0.9,0.3-1.9-0.2-2.7
				c-0.2-0.3-0.4-0.6-0.7-0.8c-0.6-0.5-1.3-0.8-2-0.8c-0.7,0-1.4,0.3-2,0.6c-0.6,0.3-1.2,0.7-1.8,1.1c-0.6,0.4-1.3,0.7-2,0.7
				c-1-0.1-1.8-1.1-1.7-2.2c0.1-0.4,0.2-0.8,0.5-1.1c0.3-0.3,0.7-0.5,1.1-0.6c0.2,0,0.3,0,0.5,0c0.2,0.1,0.3,0.2,0.4,0.3
				c0.3,0.3,0.4,0.8,0.3,1.2c-0.1,0.4-0.4,0.7-0.7,0.9c-0.3,0.1-0.7,0.2-0.7,0.2s0.1,0,0.3,0c0,0,0.1,0,0.1,0c0,0,0,0,0,0
				c0,0,0,0,0,0c0.1,0,0.3,0,0.4,0c0.6-0.1,1-0.6,1.2-1.1c0.1-0.2,0.1-0.5,0.1-0.8c0.2,0.1,0.4,0.2,0.7,0.2c0.7,0.2,1.4,0.2,2,0
				c-0.1,0-0.2,0-0.4-0.1c-0.8-0.2-1.3-0.6-1.6-1.1c0.2,0,0.4-0.1,0.6-0.2c0.3-0.2,0.6-0.5,0.8-0.9c0.1-0.2,0.1-0.3,0.1-0.5
				c0,0,0,0,0,0v0c0-0.1,0-0.1,0-0.2c0-0.4,0-0.5,0-0.5s0,0.4-0.1,0.6l0,0c-0.2,0.6-0.7,1-1.4,1c-0.3,0-0.7-0.1-1-0.1
				c-0.4,0-0.7-0.1-1.1-0.2c-0.7-0.1-1.5,0.2-2,0.5c-0.5,0.3-0.9,0.8-1.2,1.4c-0.6,1.3-0.3,2.8,0.7,3.8c0.7,0.6,1.6,1,2.5,0.9
				c0.7,0,1.4-0.3,2.1-0.7c0.6-0.3,1.2-0.7,1.8-1.1c0.6-0.4,1.4-0.7,2.1-0.4c0.7,0.3,1,1.1,0.7,1.8c-0.2,0.5-0.7,0.8-1.2,0.8
				c-1.7,0-3.5,0-5.2,0c0,0-3.9,0-5.1,0c-1.2,0-1.5-0.9-1.5-1.5c-0.2,1-1.1,1.7-1.1,1.7l0-0.4c-0.5,1.4-1.8,2-1.8,2l0.2-0.7
				c0,0,0-0.1,0-0.2c-0.3,1.2-1.6,1.5-1.6,1.5l0.3-0.6c0,0,0-0.1,0-0.1c-0.1,0.1-0.2,0.2-0.3,0.4c-0.5,0.5-0.9,0.8-1.4,0.8
				c-0.1,0-0.3,0-0.4-0.1c-0.4-0.1-0.8-0.5-0.9-1.6c0-0.1,0-0.2,0-0.3c-2.4,0-4.1-2.8-3.8-4.8c-0.4,0.4-1,0.3-1,0.3s0.7-0.3,1.1-0.8
				l0,0c0.3-0.3,0.4-0.8,0.3-1.3c-0.1-0.9-1-1.5-1.9-1.4c-0.8,0.1-1.4,0.8-1.4,1.7l0,0c0,0.6-0.1,1.2-0.4,1.7
				c-0.1,0.2-0.1,0.3-0.2,0.5c-0.1,0.6,0.2,1.1,0.7,1.3c0,0,0,0,0,0c-0.1,0-0.1,0-0.2,0c-0.4,0.1-0.8,0.3-1,0.7
				c0.1,0,0.1-0.1,0.2-0.1c0.4-0.1,0.8,0,1.1,0.3c0,0,0,0,0,0c-0.2,0.1-0.4,0.1-0.6,0.3c-0.4,0.3-0.7,0.7-0.9,1.1
				c0.1-0.1,0.1-0.1,0.2-0.2c0.4-0.3,0.9-0.3,1.4-0.1c-0.2,0.2-0.4,0.3-0.6,0.6c-0.4,0.5-0.5,1.1-0.5,1.6c0-0.1,0.1-0.2,0.2-0.3
				c0.4-0.5,0.9-0.7,1.5-0.7c-0.2,0.3-0.3,0.5-0.4,0.9c-0.2,0.7-0.1,1.4,0.1,2c0-0.1,0-0.2,0.1-0.4c0.2-0.7,0.7-1.2,1.3-1.4
				c0,0,0,0,0,0c-0.1,0.3-0.1,0.7-0.1,1.1c0,0.8,0.4,1.6,0.9,2.2c0-0.1-0.1-0.3-0.1-0.4c0-0.7,0.2-1.3,0.6-1.7
				c0.9,0.5,1.8,0.8,2.6,0.8c-0.6,2.8-2.9,4.8-3.7,4.6c0,0-0.1,0-0.1-0.1v0c-0.1-0.1-0.2-0.1-0.4-0.1C70.8,27.5,69.9,28.1,69.7,29z
				 M89.9,12.5c0,0,1.7,0.3,2.8-0.3c0,0-0.3,0.4-1.2,0.5c0,0,0.1,0.3,0.4,0.6c0.3,0.3,0.6,0.5,0.7,0.5c-1.1-0.2-1.7-0.6-1.7-0.6
				c0,0.1,0,0.8-0.1,1.2C91,13.2,89.9,12.5,89.9,12.5z"/>
			<g>
				<path class="st0" d="M79.5,16c0,0.1,0,0.1,0,0.2c-0.4,1-0.7,1.9-0.7,1.9c0,0,0.3-0.9,0.6-1.9C79.4,16.1,79.5,16,79.5,16z"/>
				<path class="st0" d="M76.5,15.3c0,0-1.2,0.8-0.8,2.8c0,0,0.5-0.9,0.8-0.3c0,0-0.6,0.8-0.3,1.8c0,0,0.1-0.6,0.6-0.5
					c0,0-0.4,2,0.6,2.4c1,0.4,2-1.4,2-1.4c0.5,0.3,0.2,0.8,0.2,0.8c0.9-0.6,1-1.6,1-1.6c0.6-0.2,0.4,0.8,0.4,0.8
					c1.6-1.3,1.2-2.6,1.2-2.6c0.7-0.1,0.5,0.8,0.5,0.8c0.6-0.7,0.6-1.6,0.4-2.1c0-0.1,0.1-0.2,0.1-0.3c0.1-0.2,0.1-0.3,0.1-0.5
					c0.8-0.1,1.3-0.5,1.3-0.8c0-0.3-0.3-0.5-0.7-0.6c-0.4-0.1-0.7-0.4-0.8-0.7c-0.1-0.2-0.2-0.3-0.3-0.5c-0.1-0.1-0.1-0.2,0-0.3
					l0.2-0.3l-0.5,0.1c-0.1,0-0.2,0-0.3-0.1c0,0,0,0,0,0c-0.1-0.1-0.1-0.1-0.1-0.2l0.1-0.4L82,11.5c-0.1,0.1-0.2,0.1-0.3,0
					c0,0,0,0-0.1,0c-0.1-0.1-0.2-0.2-0.2-0.4l0-0.4L81.1,11c-0.1,0.1-0.2,0.2-0.4,0.1c0,0,0,0-0.1,0c-0.1,0-0.2-0.1-0.2-0.2
					l-0.2-0.4L80.1,11c0,0.1-0.1,0.1-0.2,0.1c0,0,0,0-0.1,0c-0.1,0-0.2,0-0.3-0.1l-0.3-0.4l0,0.4c0,0.1-0.1,0.2-0.2,0.3
					c-0.2,0.1-0.3,0.1-0.5,0.2c-0.3,0.2-0.8,0.2-1.1,0c-0.4-0.2-0.8-0.2-1,0c-0.3,0.3,0,0.9,0.5,1.5c-0.1,0.1-0.1,0.3-0.2,0.5
					c0,0.1-0.1,0.2-0.1,0.3c-0.5,0.3-1.1,1-1,1.9C75.6,15.6,76,14.9,76.5,15.3z M83.4,15c0-0.1,0-0.2,0-0.4l0.1,0.1l-0.1-0.1
					l0.3,0.2l-0.2-0.2l0.4,0.1l-0.4-0.2l0.3,0l-0.3-0.1l0.1,0l-0.2,0c0,0,0.1,0,0.1,0c0.4-0.1,0.8,0,0.8,0.2c0,0.2-0.3,0.4-0.7,0.5
					C83.7,15,83.5,15,83.4,15z M79.3,14.2l-0.1,0c-0.1,0-0.2,0-0.4-0.1l-0.1,0l0-0.1c0,0,0,0,0-0.1c0,0,0,0,0,0l0,0
					c0-0.1,0-0.1,0-0.2c-0.3-0.1-0.5-0.4-0.5-0.6c0,0.3,0.1,0.6,0.3,0.8L78.5,14c0,0-0.1-0.1-0.1-0.1c-0.3-0.3-0.5-0.7-0.3-1.1l0,0
					c0,0,0,0,0,0c0,0,0-0.1,0-0.1l0.1-0.2l0.1,0.2c0,0,0,0,0,0c0,0,0,0,0,0c0,0,0,0,0,0c0,0,0,0,0,0c0,0,0,0,0,0c0,0,0,0,0.1,0
					c0,0,0,0,0,0l0,0l0,0c0,0,0.1,0,0.1,0c0,0,0.1,0,0.1,0.1l-0.1-0.3l0.3,0.4c0.1,0.1,0.1,0.2,0.3,0.2l0.1,0l0,0.1c0,0,0,0.1,0,0.1
					c0,0.1,0,0.2,0,0.3c0,0.1,0,0.2,0,0.2c0,0,0,0.1,0,0.1L79.3,14.2z M81.6,15.1c0,0-0.1,0-0.1,0l0-0.2c0.3,0,0.6-0.1,0.8-0.4
					c-0.2,0.2-0.5,0.2-0.8,0.1c0,0.1-0.1,0.1-0.1,0.2l0,0c0,0,0,0,0,0c0,0,0,0,0,0.1l0,0.1l-0.1,0c-0.1,0-0.2-0.1-0.3-0.2l-0.1-0.1
					l0.1-0.1c0,0,0,0,0.1,0c0.1,0,0.1-0.1,0.2-0.2c0.1-0.1,0.1-0.2,0.2-0.3c0,0,0-0.1,0.1-0.1l0-0.1l0.1,0c0.1,0,0.3,0,0.4,0
					l0.5-0.1L82,14.1c0,0,0.1,0,0.1,0c0,0,0.1,0,0.1,0l0,0l0,0c0,0,0,0,0,0c0,0,0,0,0,0c0,0,0,0,0,0c0,0,0,0,0,0c0,0,0,0,0.1,0
					c0,0,0,0,0,0c0,0,0,0,0.1,0l0.2-0.1l-0.1,0.2c0,0,0,0.1,0,0.1c0,0,0,0,0,0l0,0C82.5,14.9,82.1,15.1,81.6,15.1z M77.6,15.1
					C77.6,15.1,77.6,15.1,77.6,15.1C77.6,15,77.6,15,77.6,15.1c0-0.1,0-0.1,0-0.1c0,0,0,0,0,0c0,0,0,0,0,0c0.1-0.2,0.2-0.3,0.2-0.3
					s-0.1,0.2-0.1,0.4c-0.1,0.5,0.1,1,0.6,1.1c0.5,0.2,1-0.1,1.2-0.5c0,0,0,0,0,0c0.1-0.1-0.1-0.3-0.2-0.4c0,0,0,0,0,0c0,0,0,0,0,0
					C79,14.9,79,14.6,79,14.5c0-0.1,0.1-0.1,0.1-0.1l0.1-0.1l-0.1,0.1c0,0,0,0,0,0c-0.1,0.1,0,0.2,0.1,0.4c0,0,0,0,0.1-0.1
					c0.2-0.1,0.4,0,0.5,0.1c0.2,0,0.4,0.1,0.5,0.2c0,0,0,0.1,0,0.1c0.1,0,0.3-0.1,0.3-0.2c0,0,0,0,0,0l0-0.2l0.1,0.1
					c0,0.1,0,0.1,0,0.2c0,0.2-0.2,0.3-0.5,0.3l0,0c0,0,0,0,0,0c-0.2,0-0.4,0.1-0.4,0.2c0,0,0,0,0,0c-0.1,0.5,0.1,1,0.5,1.2
					c0.4,0.2,0.9-0.1,1.2-0.5c0.1-0.1,0.2-0.3,0.2-0.3s0,0.2-0.1,0.4c0,0,0,0,0,0c0,0,0,0,0,0c-0.2,0.4-0.6,0.7-1,0.7
					c-0.1,0-0.2,0-0.4-0.1c0,0,0,0-0.1,0c-0.5,1-1.2,1.7-1.6,1.5c-0.4-0.1-0.5-1-0.2-2.2c0,0-0.1,0-0.1,0c-0.3-0.1-0.5-0.3-0.6-0.6
					C77.6,15.6,77.5,15.3,77.6,15.1z M76.8,12.5c-0.3-0.3-0.3-0.7-0.2-0.8c0.2-0.1,0.5,0,0.8,0.3c0,0,0,0.1,0.1,0.1L77.3,12l0.1,0.1
					L77.1,12l0.2,0.2L77,12.1l0.4,0.2l-0.3,0l0.3,0.1l-0.1,0l0.1,0c-0.1,0.1-0.1,0.2-0.2,0.3C77,12.7,76.9,12.6,76.8,12.5z"/>
			</g>
		</g>
		<path class="st0" d="M103,7.7v83.6c0,1.1-0.1,2.2-0.3,3.3l0,0.2c-1,5.4-4.2,10.8-9.6,16c-1.8,1.8-3.8,3.5-6.1,5.2
			c-4.4,3.4-9.7,6.6-15.7,9.7c-0.6,0.3-1.1,0.6-1.6,0.8l0,0l-0.1,0c-7.4,3.7-13.3,5.9-14,6.1l-0.4,0.1l-0.4-0.1
			c-0.7-0.2-6.6-2.4-14-6.1l-0.1,0l0,0c-0.5-0.3-1-0.5-1.6-0.8c-6-3.1-11.3-6.4-15.7-9.7c-2.2-1.7-4.3-3.4-6.1-5.2
			c-5.3-5.2-8.6-10.7-9.6-16l0-0.2c-0.2-1.1-0.3-2.2-0.3-3.3V7.7H103 M104.6,6.1H103H7.7H6.1v1.5v83.6c0,1.2,0.1,2.4,0.3,3.6l0,0.2
			l0,0l0,0c0.3,1.4,0.7,2.9,1.2,4.3c0.6,1.4,1.3,2.9,2.1,4.3c0.8,1.4,1.8,2.8,2.9,4.2c1.1,1.4,2.4,2.8,3.7,4.1l0,0l0,0
			c1.8,1.8,3.9,3.6,6.2,5.3c4.5,3.4,9.9,6.7,15.9,9.9l0,0l0,0c0.5,0.3,1,0.5,1.6,0.8l0,0l0,0l0,0l0,0c7.5,3.7,13.5,5.9,14.2,6.2
			l0.4,0.1l0.5,0.2l0.5-0.2l0.4-0.1c0.7-0.2,6.7-2.4,14.2-6.2l0,0l0,0l0,0l0,0l0,0c0.6-0.3,1.1-0.6,1.6-0.8l0,0l0,0
			c6.1-3.1,11.4-6.5,15.9-9.9c2.3-1.7,4.4-3.5,6.2-5.3l0,0l0,0c1.4-1.3,2.6-2.7,3.7-4.1c1.1-1.4,2.1-2.8,2.9-4.2
			c0.8-1.4,1.5-2.8,2.1-4.3c0.6-1.4,1-2.9,1.2-4.3l0,0l0,0l0-0.2c0.2-1.2,0.3-2.4,0.3-3.6V7.7V6.1L104.6,6.1z"/>
		<path class="st0" d="M108.2,2.5v88.7c0,1.4-0.1,2.8-0.4,4.2l0,0.2l0,0c-0.6,3.3-1.9,6.6-3.8,9.8c-1.8,3.1-4.3,6.1-7.2,9l0,0
			c-2,1.9-4.2,3.8-6.5,5.6c-4.7,3.5-10.2,7-16.5,10.2l0,0c-0.5,0.3-1,0.5-1.6,0.8l-0.1,0l-0.1,0c-7.6,3.8-13.8,6.1-14.5,6.3
			l-2.1,0.8l-2.1-0.8c-0.7-0.2-6.9-2.5-14.5-6.3l-0.1,0l-0.1,0c-0.6-0.3-1.1-0.6-1.6-0.8l0,0c-6.3-3.2-11.8-6.7-16.5-10.2
			c-2.4-1.8-4.6-3.7-6.5-5.6l0,0c-3-2.9-5.4-5.9-7.2-9c-1.9-3.2-3.2-6.5-3.8-9.8l0,0l0-0.2c-0.2-1.4-0.4-2.8-0.4-4.2V2.5H108.2
			 M110.7,0h-2.5H2.5H0v2.5v88.7c0,1.5,0.1,3.1,0.4,4.6l0,0.2l0,0l0,0l0,0c0.6,3.6,2,7.1,4.1,10.6c1.9,3.3,4.5,6.5,7.6,9.5l0,0l0,0
			c2,2,4.3,3.9,6.8,5.8c4.8,3.6,10.4,7.1,16.8,10.4l0,0l0,0l0,0c0.5,0.3,1.1,0.5,1.7,0.8l0.1,0l0,0l0,0l0,0
			c7.8,3.9,14.1,6.2,14.8,6.4l2.1,0.8l0.9,0.3l0.9-0.3l2.1-0.8c0.7-0.2,7-2.5,14.8-6.4l0,0l0,0l0,0l0.1,0l0,0
			c0.6-0.3,1.1-0.6,1.7-0.8l0,0l0,0l0,0l0,0c6.4-3.3,12-6.8,16.8-10.4c2.5-1.9,4.8-3.8,6.8-5.8l0,0l0,0c3.1-3.1,5.7-6.3,7.6-9.5
			c2.1-3.5,3.5-7.1,4.1-10.6l0,0l0,0l0,0l0-0.2c0.3-1.5,0.4-3.1,0.4-4.6V2.5V0L110.7,0z"/>
		<g>
			<path class="st0" d="M67.3,29.3V11.8L67,11.5l-1.4,0.4l-0.4,0.1l-0.7,0.2l-0.4-0.4c0,0-0.1,0-0.2-0.1c-4.7-2-8,0.8-8.6,1.5
				c-0.3-0.3-1.1-1-2.2-1.5c-1.4-0.6-3.6-1.1-6.4,0.1c-0.1,0-0.2,0.1-0.2,0.1l-0.4,0.4L45.1,12l-0.8-0.3l-0.5-0.2l-0.3,0.3v17.5
				l9.7,1.3c0,0.1,0,0.2,0,0.3c0,0.9,1,1.6,2.3,1.6c1.3,0,2.3-0.7,2.3-1.6c0-0.1,0-0.2,0-0.3l0,0L67.3,29.3z M44,29.1l-0.3,0V11.9
				L44,12V29.1z M66.7,12l0.3-0.1V29l-0.3,0V12z M55.5,13.7c0.4-0.4,3.5-3.5,8.2-1.5l0,14.4c-0.9-0.2-4.7-0.8-8.3,1.4V13.7z
				 M46.9,12.2c3.8-1.6,6.6,0.1,7.7,1.1V27l0.5,0.9v0c-2.1-1.3-4.3-1.6-5.9-1.6c-1.1,0-1.9,0.1-2.3,0.2L46.9,12.2z M46.1,13.1
				l0.1-0.3l0.4-0.4l0,14.3c0,0,0,0.1,0,0.1L46,27.3l0,0L46.1,13.1z M57.3,29.7l-0.5,0.1c0,0,1.1,1.4-1.5,1.4
				c-2.6,0-1.5-1.4-1.5-1.4l-0.5-0.1l-8.5-1.5V13.8l0-1.5l1,0.3l-0.1,0.1c0,0-0.1,0.1-0.1,0.2v14.6c0,0.1,0.1,0.2,0.2,0.2l0.1,0
				l8.1,1.5c0,0.1,0.1,0.2,0.2,0.4c0,0.1,0.1,0.1,0.1,0.2c0.1,0.2,0.3,0.3,0.5,0.3c0,0,0,0,0,0c0.1,0,0.1,0,0.2,0.1
				c0.1,0,0.2,0,0.3,0c0.1,0,0.4,0,0.7-0.1c0,0,0,0,0,0c0,0,0,0,0,0c0.2-0.1,0.3-0.2,0.4-0.3c0.1-0.2,0.2-0.4,0.2-0.6l8.3-1.4
				c0.1,0,0.2-0.1,0.2-0.2V12.9c0,0,0,0,0,0c0,0,0,0,0-0.1c0,0,0,0,0,0c0,0,0,0,0,0l-0.1-0.2l0.9-0.3l0,0.3v15.7L57.3,29.7z"/>
			<g>
				<path class="st0" d="M59,14.5v8.7c0.3-0.1,0.7-0.1,1-0.1v-8.7C59.6,14.4,59.3,14.5,59,14.5z"/>
				<path class="st0" d="M57.3,16.7v1c1.7-0.6,3.3-0.7,4.5-0.6v-1C60,15.7,58.4,16.1,57.3,16.7z"/>
			</g>
		</g>
	</g>
	<g>
		<path class="st0" d="M128.8,32.5c0-7.9,0-9.3-0.1-11c-0.1-1.7-0.5-2.5-2.2-2.9c-0.4-0.1-1.3-0.2-1.7-0.2c-0.2,0-0.4-0.1-0.4-0.3
			c0-0.3,0.3-0.4,0.8-0.4c2.3,0,5.4,0.2,5.8,0.2s3.5-0.2,5-0.2c0.6,0,0.8,0.1,0.8,0.4c0,0.2-0.2,0.3-0.4,0.3c-0.4,0-0.7,0.1-1.3,0.2
			c-1.4,0.2-1.8,1.1-1.9,2.9c-0.1,1.6-0.1,3-0.1,11v7.1c0,7.3,1.6,10.5,3.8,12.6c2.5,2.3,4.8,2.8,7.7,2.8c3.1,0,6.1-1.5,8-3.7
			c2.3-2.9,2.9-7.2,2.9-12.4v-6.4c0-7.9,0-9.3-0.1-11c-0.1-1.7-0.5-2.5-2.2-2.9c-0.4-0.1-1.3-0.2-1.7-0.2c-0.2,0-0.4-0.1-0.4-0.3
			c0-0.3,0.3-0.4,0.8-0.4c2.3,0,5.1,0.2,5.4,0.2c0.4,0,2.7-0.2,4.3-0.2c0.6,0,0.8,0.1,0.8,0.4c0,0.2-0.2,0.3-0.4,0.3
			c-0.4,0-0.7,0.1-1.3,0.2c-1.4,0.3-1.8,1.1-1.9,2.9c-0.1,1.6-0.1,3-0.1,11v5.4c0,5.5-0.6,11.6-4.7,15.2c-3.7,3.3-7.5,3.8-10.5,3.8
			c-1.7,0-6.9-0.2-10.5-3.6c-2.5-2.4-4.4-5.9-4.4-13.4V32.5z"/>
		<path class="st0" d="M171.3,49.2c0.1,4.2,0.6,5.5,2,5.9c1,0.3,2.1,0.3,2.5,0.3c0.3,0,0.4,0.1,0.4,0.3c0,0.3-0.3,0.4-0.9,0.4
			c-2.9,0-4.9-0.2-5.4-0.2c-0.5,0-2.6,0.2-4.9,0.2c-0.5,0-0.8-0.1-0.8-0.4c0-0.2,0.2-0.3,0.4-0.3c0.4,0,1.3-0.1,2.1-0.3
			c1.3-0.4,1.5-1.8,1.5-6.5l0.1-29.1c0-2,0.2-2.5,0.6-2.5c0.4,0,1.3,1.1,1.8,1.6c0.8,0.9,8.3,9,16.2,17.4c5,5.4,10.6,11.6,12.2,13.3
			l-0.6-25.8c-0.1-3.3-0.4-4.4-2-4.8c-0.9-0.2-2.1-0.3-2.5-0.3c-0.4,0-0.4-0.2-0.4-0.4c0-0.3,0.4-0.4,1-0.4c2.3,0,4.7,0.2,5.3,0.2
			c0.6,0,2.2-0.2,4.3-0.2c0.6,0,0.9,0.1,0.9,0.4c0,0.2-0.2,0.4-0.6,0.4c-0.3,0-0.6,0-1.2,0.2c-1.7,0.4-1.9,1.5-1.9,4.5l-0.1,29.8
			c0,3.4-0.1,3.6-0.5,3.6c-0.4,0-1-0.6-3.7-3.3c-0.6-0.5-7.9-8-13.3-13.8c-5.9-6.4-11.6-12.8-13.3-14.6L171.3,49.2z"/>
		<path class="st0" d="M220.9,41.4c0,4.9,0,8.9,0.3,11c0.2,1.5,0.5,2.6,2,2.8c0.7,0.1,1.8,0.2,2.3,0.2c0.3,0,0.4,0.2,0.4,0.3
			c0,0.3-0.3,0.4-0.8,0.4c-2.8,0-6-0.2-6.2-0.2c-0.3,0-3.5,0.2-5,0.2c-0.6,0-0.8-0.1-0.8-0.4c0-0.2,0.1-0.3,0.4-0.3
			c0.5,0,1.1-0.1,1.5-0.2c1-0.2,1.3-1.3,1.5-2.8c0.3-2.1,0.3-6.1,0.3-11v-8.9c0-7.9,0-9.3-0.1-11c-0.1-1.7-0.6-2.6-1.7-2.8
			c-0.6-0.2-1.2-0.2-1.6-0.2c-0.2,0-0.4-0.1-0.4-0.3c0-0.3,0.3-0.4,0.8-0.4c1.7,0,4.9,0.2,5.1,0.2c0.3,0,3.5-0.2,5-0.2
			c0.6,0,0.8,0.1,0.8,0.4c0,0.2-0.2,0.3-0.4,0.3c-0.4,0-0.7,0.1-1.3,0.2c-1.4,0.3-1.8,1.1-1.9,2.9c-0.1,1.6-0.1,3-0.1,11V41.4z"/>
		<path class="st0" d="M250,49.9c2.9-6.8,9.8-24.5,10.9-28.2c0.3-0.8,0.5-1.5,0.5-1.9c0-0.4-0.2-0.9-0.7-1.2
			c-0.6-0.2-1.4-0.2-1.9-0.2c-0.3,0-0.6-0.1-0.6-0.3c0-0.3,0.3-0.4,1.1-0.4c2,0,4.4,0.2,5,0.2c0.3,0,2.5-0.2,4-0.2
			c0.6,0,0.9,0.1,0.9,0.4c0,0.3-0.2,0.4-0.6,0.4c-0.4,0-1.5,0-2.4,0.6c-0.7,0.5-1.4,1.3-2.8,4.8c-0.6,1.4-3.1,7.5-5.7,13.8
			c-3.1,7.4-5.4,12.9-6.6,15.4c-1.4,3-1.6,3.9-2.1,3.9c-0.6,0-0.9-0.7-1.8-3.2l-12.4-31.1c-1.1-2.8-1.9-3.4-3.7-3.9
			c-0.8-0.2-1.6-0.2-1.9-0.2c-0.3,0-0.4-0.2-0.4-0.4c0-0.3,0.5-0.4,1.3-0.4c2.4,0,5.3,0.2,5.9,0.2c0.5,0,2.8-0.2,4.7-0.2
			c0.9,0,1.4,0.1,1.4,0.4c0,0.3-0.2,0.4-0.5,0.4c-0.6,0-1.5,0.1-1.9,0.3c-0.6,0.3-0.7,0.7-0.7,1c0,0.7,0.6,2.2,1.4,4.2L250,49.9z"/>
		<path class="st0" d="M276.7,32.5c0-7.9,0-9.3-0.1-11c-0.1-1.7-0.5-2.5-2.2-2.9c-0.4-0.1-1.3-0.2-1.7-0.2c-0.2,0-0.4-0.1-0.4-0.3
			c0-0.3,0.3-0.4,0.8-0.4c1.2,0,2.5,0,3.7,0.1l2.1,0.1c0.4,0,10.5,0,11.6-0.1c1-0.1,1.8-0.2,2.2-0.3c0.3-0.1,0.5-0.3,0.7-0.3
			c0.2,0,0.2,0.2,0.2,0.5c0,0.4-0.3,1-0.4,2.4c-0.1,0.5-0.2,2.7-0.3,3.4c-0.1,0.3-0.2,0.6-0.4,0.6c-0.3,0-0.4-0.3-0.4-0.7
			c0-0.4-0.1-1.2-0.3-1.8c-0.4-0.8-0.9-1.4-3.6-1.7c-0.9-0.1-6.4-0.2-7-0.2c-0.2,0-0.3,0.2-0.3,0.5v14c0,0.4,0.1,0.5,0.3,0.5
			c0.7,0,6.9,0,8.1-0.1c1.2-0.1,1.9-0.2,2.4-0.7c0.4-0.4,0.6-0.7,0.8-0.7c0.2,0,0.3,0.1,0.3,0.4s-0.3,1.2-0.4,2.8
			c-0.1,1-0.2,2.9-0.2,3.3c0,0.4,0,1-0.4,1c-0.3,0-0.4-0.2-0.4-0.5c0-0.5,0-1-0.2-1.7c-0.2-0.7-0.7-1.6-2.6-1.8
			c-1.4-0.2-6.4-0.3-7.3-0.3c-0.3,0-0.4,0.2-0.4,0.4v4.5c0,1.7-0.1,7.6,0,8.7c0.2,3.5,0.9,4.2,5.9,4.2c1.3,0,3.6,0,4.9-0.6
			c1.3-0.6,1.9-1.6,2.3-3.7c0.1-0.6,0.2-0.8,0.5-0.8c0.3,0,0.3,0.4,0.3,0.8c0,0.4-0.4,3.9-0.7,4.9c-0.4,1.3-0.8,1.3-2.7,1.3
			c-3.8,0-6.6-0.1-8.6-0.2c-2-0.1-3.2-0.2-4-0.2c-0.1,0-1,0-2,0.1c-1,0-2.2,0.1-2.9,0.1c-0.6,0-0.8-0.1-0.8-0.4
			c0-0.2,0.1-0.3,0.4-0.3c0.5,0,1.1-0.1,1.5-0.2c1-0.2,1.3-1.3,1.5-2.8c0.3-2.1,0.3-6.1,0.3-11V32.5z"/>
		<path class="st0" d="M305.5,32.5c0-7.9,0-9.3-0.1-11c-0.1-1.7-0.5-2.5-2.2-2.9c-0.4-0.1-1.3-0.2-1.7-0.2c-0.2,0-0.4-0.1-0.4-0.3
			c0-0.3,0.3-0.4,0.8-0.4c2.3,0,5.5,0.2,5.7,0.2c0.6,0,4.4-0.2,6-0.2c3.2,0,6.6,0.3,9.3,2.2c1.3,0.9,3.5,3.4,3.5,6.9
			c0,3.8-1.6,7.5-6.1,11.7c4.2,5.3,7.6,9.9,10.6,13c2.7,2.9,4.9,3.5,6.2,3.7c1,0.2,1.7,0.2,2,0.2c0.3,0,0.5,0.2,0.5,0.3
			c0,0.3-0.3,0.4-1.2,0.4h-3.6c-2.8,0-4.1-0.3-5.4-1c-2.2-1.2-4-3.7-6.9-7.5c-2.1-2.8-4.5-6.2-5.5-7.5c-0.2-0.2-0.4-0.3-0.7-0.3
			l-6.2-0.1c-0.3,0-0.4,0.2-0.4,0.4v1.2c0,4.9,0,8.9,0.3,11c0.2,1.5,0.5,2.6,2,2.8c0.7,0.1,1.8,0.2,2.3,0.2c0.3,0,0.4,0.2,0.4,0.3
			c0,0.3-0.3,0.4-0.8,0.4c-2.8,0-6-0.2-6.2-0.2c-0.1,0-3.3,0.2-4.8,0.2c-0.6,0-0.8-0.1-0.8-0.4c0-0.2,0.1-0.3,0.4-0.3
			c0.5,0,1.1-0.1,1.5-0.2c1-0.2,1.3-1.3,1.5-2.8c0.3-2.1,0.3-6.1,0.3-11V32.5z M309.5,36.9c0,0.3,0.1,0.5,0.4,0.6
			c0.8,0.5,3.1,0.8,5.3,0.8c1.2,0,2.6-0.2,3.8-1c1.8-1.2,3.1-4,3.1-7.8c0-6.4-3.4-10.2-8.8-10.2c-1.5,0-2.9,0.2-3.4,0.3
			c-0.3,0.1-0.4,0.3-0.4,0.6V36.9z"/>
		<path class="st0" d="M343.5,55.5c-0.7-0.4-0.8-0.6-0.8-1.9c0-2.5,0.2-4.6,0.3-5.4c0.1-0.6,0.2-0.8,0.4-0.8c0.3,0,0.4,0.2,0.4,0.6
			c0,0.5,0,1.2,0.2,1.9c0.8,3.8,4.1,5.2,7.5,5.2c4.9,0,7.3-3.5,7.3-6.8c0-3.5-1.5-5.5-5.8-9.1l-2.3-1.9c-5.4-4.4-6.6-7.6-6.6-11
			c0-5.4,4.1-9.1,10.5-9.1c2,0,3.5,0.2,4.7,0.5c1,0.2,1.4,0.3,1.8,0.3c0.4,0,0.5,0.1,0.5,0.4c0,0.3-0.2,1.9-0.2,5.4
			c0,0.8-0.1,1.2-0.4,1.2c-0.3,0-0.4-0.3-0.4-0.7c-0.1-0.6-0.4-2-0.7-2.5c-0.3-0.6-1.7-2.7-6.4-2.7c-3.5,0-6.3,2.2-6.3,5.9
			c0,2.9,1.3,4.7,6.2,8.5l1.4,1.1c6,4.7,7.4,7.9,7.4,11.9c0,2.1-0.8,5.9-4.3,8.4c-2.2,1.5-4.9,2.1-7.7,2.1
			C347.9,56.8,345.5,56.5,343.5,55.5z"/>
		<path class="st0" d="M378.7,41.4c0,4.9,0,8.9,0.3,11c0.2,1.5,0.5,2.6,2,2.8c0.7,0.1,1.8,0.2,2.3,0.2c0.3,0,0.4,0.2,0.4,0.3
			c0,0.3-0.3,0.4-0.8,0.4c-2.8,0-6-0.2-6.3-0.2c-0.3,0-3.5,0.2-5,0.2c-0.6,0-0.8-0.1-0.8-0.4c0-0.2,0.1-0.3,0.4-0.3
			c0.5,0,1.1-0.1,1.5-0.2c1-0.2,1.3-1.3,1.5-2.8c0.3-2.1,0.3-6.1,0.3-11v-8.9c0-7.9,0-9.3-0.1-11c-0.1-1.7-0.6-2.6-1.7-2.8
			c-0.6-0.2-1.2-0.2-1.6-0.2c-0.2,0-0.4-0.1-0.4-0.3c0-0.3,0.3-0.4,0.8-0.4c1.7,0,4.9,0.2,5.1,0.2c0.3,0,3.5-0.2,5-0.2
			c0.6,0,0.8,0.1,0.8,0.4c0,0.2-0.2,0.3-0.4,0.3c-0.4,0-0.7,0.1-1.3,0.2c-1.4,0.3-1.8,1.1-1.9,2.9c-0.1,1.6-0.1,3-0.1,11V41.4z"/>
		<path class="st0" d="M405.4,41.4c0,4.9,0,8.9,0.3,11c0.2,1.5,0.5,2.6,2,2.8c0.7,0.1,1.8,0.2,2.3,0.2c0.3,0,0.4,0.2,0.4,0.3
			c0,0.3-0.3,0.4-0.8,0.4c-2.8,0-6-0.2-6.2-0.2c-0.3,0-3.5,0.2-5,0.2c-0.6,0-0.8-0.1-0.8-0.4c0-0.2,0.1-0.3,0.4-0.3
			c0.5,0,1.1-0.1,1.5-0.2c1-0.2,1.3-1.3,1.5-2.8c0.3-2.1,0.3-6.1,0.3-11V19.9l-7.5,0.1c-3.2,0.1-4.4,0.4-5.2,1.6
			c-0.6,0.9-0.7,1.2-0.9,1.6c-0.2,0.4-0.3,0.5-0.5,0.5c-0.2,0-0.3-0.2-0.3-0.5c0-0.5,1-4.9,1.1-5.3c0.1-0.3,0.3-1,0.5-1
			c0.4,0,0.9,0.5,2.2,0.6c1.5,0.2,3.4,0.3,4,0.3h19.1c1.6,0,2.8-0.1,3.6-0.3c0.8-0.1,1.2-0.3,1.4-0.3c0.3,0,0.3,0.3,0.3,0.6
			c0,1.5-0.2,5-0.2,5.6c0,0.5-0.2,0.7-0.4,0.7c-0.3,0-0.4-0.2-0.4-0.9l-0.1-0.6c-0.2-1.5-1.4-2.7-6.2-2.8l-6.4-0.1V41.4z"/>
		<path class="st0" d="M439.1,43c0-2.7-0.5-3.9-1.2-5.3c-0.4-0.8-7.2-12-8.9-14.6c-1.3-1.9-2.5-3.2-3.5-3.8
			c-0.8-0.5-1.7-0.8-2.2-0.8c-0.3,0-0.5-0.1-0.5-0.4c0-0.2,0.2-0.4,0.7-0.4c1,0,4.8,0.2,5,0.2c0.4,0,2.3-0.2,4.3-0.2
			c0.6,0,0.7,0.2,0.7,0.4s-0.3,0.3-0.8,0.5c-0.4,0.2-0.7,0.5-0.7,0.9c0,0.6,0.3,1.2,0.7,2c0.8,1.5,8.4,14.6,9.3,16.1
			c1-2.1,7.4-13.3,8.4-14.9c0.7-1.1,0.9-1.9,0.9-2.6c0-0.7-0.2-1.3-0.8-1.4c-0.5-0.2-0.8-0.3-0.8-0.5c0-0.2,0.3-0.3,0.8-0.3
			c1.3,0,2.9,0.2,3.4,0.2c0.3,0,4-0.2,4.9-0.2c0.4,0,0.7,0.1,0.7,0.3c0,0.3-0.3,0.4-0.7,0.4c-0.6,0-1.5,0.2-2.3,0.7
			c-1,0.6-1.6,1.2-2.7,2.6c-1.7,2-8.8,14-9.7,16.2c-0.8,1.8-0.8,3.4-0.8,5.1v4.4c0,0.8,0,2.9,0.2,5.1c0.1,1.5,0.6,2.6,2.1,2.8
			c0.7,0.1,1.8,0.2,2.3,0.2c0.3,0,0.4,0.2,0.4,0.3c0,0.3-0.3,0.4-0.8,0.4c-2.8,0-6-0.2-6.2-0.2c-0.3,0-3.5,0.2-5,0.2
			c-0.6,0-0.8-0.1-0.8-0.4c0-0.2,0.1-0.3,0.4-0.3c0.5,0,1.1-0.1,1.5-0.2c1-0.2,1.5-1.3,1.6-2.8c0.2-2.1,0.2-4.3,0.2-5.1V43z"/>
		<path class="st0" d="M167.5,109.4h0.2c1.4-4.7,6-19.4,7.8-25.9c0.5-1.9,0.6-2.6,0.6-3.3c0-0.9-0.6-1.5-2.9-1.5
			c-0.3,0-0.5-0.2-0.5-0.4c0-0.3,0.3-0.4,0.9-0.4c2.6,0,4.7,0.2,5.2,0.2c0.4,0,2.5-0.2,4.1-0.2c0.5,0,0.7,0.1,0.7,0.3
			c0,0.3-0.2,0.4-0.5,0.4c-0.2,0-1.2,0.1-1.7,0.3c-1.5,0.6-2.3,2.7-3.3,5.5c-2.2,6.5-7.4,22.6-9.3,28.3c-1.3,3.8-1.6,4.4-2.1,4.4
			c-0.5,0-0.8-0.7-1.5-2.6l-10-28.3H155c-1.8,4.9-8.8,23.5-10.6,28.3c-0.8,2.1-1.1,2.7-1.7,2.7c-0.5,0-0.8-0.6-1.8-4l-9-30.1
			c-0.8-2.7-1.5-3.5-2.8-4c-0.7-0.3-1.9-0.3-2.3-0.3c-0.3,0-0.5-0.1-0.5-0.4c0-0.3,0.3-0.4,0.8-0.4c2.6,0,5.4,0.2,6,0.2
			c0.5,0,2.7-0.2,5.2-0.2c0.7,0,0.9,0.2,0.9,0.4c0,0.3-0.3,0.4-0.5,0.4c-0.4,0-1.4,0-2,0.3c-0.3,0.2-0.7,0.6-0.7,1.2s0.5,2.4,1,4.7
			c0.8,3.3,6,21.9,6.8,24.6h0.1l10.8-29c0.8-2.1,1-2.3,1.3-2.3c0.4,0,0.7,0.7,1.3,2.4L167.5,109.4z"/>
		<path class="st0" d="M196.2,101.6c0,4.9,0,8.9,0.3,11c0.2,1.5,0.5,2.6,2,2.8c0.7,0.1,1.8,0.2,2.3,0.2c0.3,0,0.4,0.2,0.4,0.3
			c0,0.3-0.3,0.4-0.8,0.4c-2.8,0-6-0.2-6.2-0.2c-0.3,0-3.5,0.2-5,0.2c-0.6,0-0.8-0.1-0.8-0.4c0-0.2,0.1-0.3,0.4-0.3
			c0.5,0,1.1-0.1,1.5-0.2c1-0.2,1.3-1.3,1.5-2.8c0.3-2.1,0.3-6.1,0.3-11v-8.9c0-7.9,0-9.3-0.1-11c-0.1-1.7-0.6-2.6-1.7-2.8
			c-0.6-0.2-1.2-0.2-1.6-0.2c-0.2,0-0.4-0.1-0.4-0.3c0-0.3,0.3-0.4,0.8-0.4c1.7,0,4.9,0.2,5.1,0.2c0.3,0,3.5-0.2,5-0.2
			c0.6,0,0.8,0.1,0.8,0.4c0,0.2-0.2,0.3-0.4,0.3c-0.4,0-0.7,0.1-1.3,0.2c-1.4,0.3-1.8,1.1-1.9,2.9c-0.1,1.6-0.1,3-0.1,11V101.6z"/>
		<path class="st0" d="M213.4,109.5c0.1,4.2,0.6,5.5,2,5.9c1,0.3,2.1,0.3,2.5,0.3c0.3,0,0.4,0.1,0.4,0.3c0,0.3-0.3,0.4-0.9,0.4
			c-2.9,0-4.9-0.2-5.4-0.2c-0.5,0-2.6,0.2-4.9,0.2c-0.5,0-0.8-0.1-0.8-0.4c0-0.2,0.2-0.3,0.4-0.3c0.4,0,1.3-0.1,2.1-0.3
			c1.3-0.4,1.5-1.8,1.5-6.5l0.1-29.1c0-2,0.2-2.5,0.6-2.5c0.4,0,1.3,1.1,1.8,1.6c0.8,0.9,8.3,9,16.2,17.4c5,5.4,10.6,11.6,12.2,13.3
			l-0.6-25.8c-0.1-3.3-0.4-4.4-2-4.8c-0.9-0.2-2.1-0.3-2.5-0.3c-0.4,0-0.4-0.2-0.4-0.4c0-0.3,0.4-0.4,1-0.4c2.3,0,4.7,0.2,5.3,0.2
			c0.6,0,2.2-0.2,4.3-0.2c0.6,0,0.9,0.1,0.9,0.4c0,0.2-0.2,0.4-0.6,0.4c-0.3,0-0.6,0-1.2,0.2c-1.7,0.4-1.9,1.5-1.9,4.5l-0.1,29.8
			c0,3.4-0.1,3.6-0.5,3.6c-0.4,0-1-0.6-3.7-3.3c-0.6-0.5-7.9-8-13.3-13.8c-5.9-6.4-11.6-12.8-13.3-14.6L213.4,109.5z"/>
		<path class="st0" d="M258.1,111.6c-4.9-4.4-6.1-10.2-6.1-15c0-3.4,1.2-9.3,5.7-13.9c3-3,7.7-5.4,15.5-5.4c2,0,4.9,0.2,7.4,0.6
			c1.9,0.4,3.6,0.7,5.2,0.8c0.6,0.1,0.7,0.3,0.7,0.6c0,0.4-0.2,1-0.3,2.8c-0.1,1.7-0.1,4.5-0.2,5.2c-0.1,0.8-0.2,1.1-0.5,1.1
			c-0.4,0-0.4-0.4-0.4-1.1c0-2-0.8-4.1-2.1-5.2c-1.8-1.5-5.7-2.9-10.2-2.9c-6.8,0-9.9,2-11.7,3.7c-3.7,3.6-4.6,8.1-4.6,13.3
			c0,9.7,7.5,18.6,18.3,18.6c3.8,0,6.8-0.5,8.8-2.5c1.1-1.1,1.7-3.4,1.9-4.3c0.1-0.6,0.2-0.8,0.5-0.8c0.3,0,0.4,0.4,0.4,0.8
			c0,0.4-0.6,4.8-1.1,6.5c-0.3,1-0.4,1.1-1.3,1.5c-2,0.8-5.9,1.2-9.1,1.2C267.3,117.1,262.2,115.2,258.1,111.6z"/>
		<path class="st0" d="M328,101.6c0,4.9,0,8.9,0.3,11c0.2,1.5,0.5,2.6,2,2.8c0.7,0.1,1.8,0.2,2.3,0.2c0.3,0,0.4,0.2,0.4,0.3
			c0,0.3-0.3,0.4-0.8,0.4c-2.8,0-6-0.2-6.2-0.2c-0.3,0-3.5,0.2-5,0.2c-0.6,0-0.8-0.1-0.8-0.4c0-0.2,0.1-0.3,0.4-0.3
			c0.5,0,1.1-0.1,1.5-0.2c1-0.2,1.3-1.3,1.5-2.8c0.3-2.1,0.3-6.1,0.3-11v-5.3c0-0.2-0.2-0.3-0.3-0.3h-21.5c-0.2,0-0.3,0.1-0.3,0.3
			v5.3c0,4.9,0,8.9,0.3,11c0.2,1.5,0.5,2.6,2,2.8c0.7,0.1,1.8,0.2,2.3,0.2c0.3,0,0.4,0.2,0.4,0.3c0,0.3-0.3,0.4-0.8,0.4
			c-2.8,0-6-0.2-6.2-0.2c-0.3,0-3.5,0.2-5,0.2c-0.6,0-0.8-0.1-0.8-0.4c0-0.2,0.1-0.3,0.4-0.3c0.5,0,1.1-0.1,1.5-0.2
			c1-0.2,1.3-1.3,1.5-2.8c0.3-2.1,0.3-6.1,0.3-11v-8.9c0-7.9,0-9.3-0.1-11c-0.1-1.7-0.5-2.5-2.2-2.9c-0.4-0.1-1.3-0.2-1.7-0.2
			c-0.2,0-0.4-0.1-0.4-0.3c0-0.3,0.3-0.4,0.8-0.4c2.3,0,5.5,0.2,5.7,0.2c0.3,0,3.5-0.2,5-0.2c0.6,0,0.8,0.1,0.8,0.4
			c0,0.2-0.2,0.3-0.4,0.3c-0.4,0-0.7,0.1-1.3,0.2c-1.4,0.3-1.8,1.1-1.9,2.9c-0.1,1.6-0.1,3-0.1,11v1.1c0,0.3,0.2,0.3,0.3,0.3h21.5
			c0.2,0,0.3-0.1,0.3-0.3v-1.1c0-7.9,0-9.3-0.1-11c-0.1-1.7-0.5-2.5-2.2-2.9c-0.4-0.1-1.3-0.2-1.7-0.2c-0.2,0-0.4-0.1-0.4-0.3
			c0-0.3,0.3-0.4,0.8-0.4c2.3,0,5.5,0.2,5.7,0.2c0.3,0,3.5-0.2,5-0.2c0.6,0,0.8,0.1,0.8,0.4c0,0.2-0.2,0.3-0.4,0.3
			c-0.4,0-0.7,0.1-1.3,0.2c-1.4,0.3-1.8,1.1-1.9,2.9c-0.1,1.6-0.1,3-0.1,11V101.6z"/>
		<path class="st0" d="M343,92.7c0-7.9,0-9.3-0.1-11c-0.1-1.7-0.5-2.5-2.2-2.9c-0.4-0.1-1.3-0.2-1.7-0.2c-0.2,0-0.4-0.1-0.4-0.3
			c0-0.3,0.3-0.4,0.8-0.4c1.2,0,2.5,0,3.7,0.1l2.1,0.1c0.4,0,10.5,0,11.6-0.1c1-0.1,1.8-0.2,2.2-0.3c0.3-0.1,0.5-0.3,0.7-0.3
			c0.2,0,0.2,0.2,0.2,0.5c0,0.4-0.3,1-0.4,2.4c-0.1,0.5-0.2,2.7-0.3,3.4c-0.1,0.3-0.2,0.6-0.4,0.6c-0.3,0-0.4-0.3-0.4-0.7
			c0-0.4-0.1-1.2-0.3-1.8c-0.4-0.8-0.9-1.4-3.6-1.7c-0.9-0.1-6.4-0.2-7-0.2c-0.2,0-0.3,0.2-0.3,0.5v14c0,0.4,0.1,0.5,0.3,0.5
			c0.7,0,6.9,0,8.1-0.1c1.2-0.1,1.9-0.2,2.4-0.7c0.4-0.4,0.6-0.7,0.8-0.7c0.2,0,0.3,0.1,0.3,0.4s-0.3,1.2-0.4,2.8
			c-0.1,1-0.2,2.9-0.2,3.3c0,0.4,0,1-0.4,1c-0.3,0-0.4-0.2-0.4-0.5c0-0.5,0-1-0.2-1.7c-0.2-0.7-0.7-1.6-2.6-1.8
			c-1.4-0.2-6.4-0.3-7.3-0.3c-0.3,0-0.4,0.2-0.4,0.4v4.5c0,1.7-0.1,7.6,0,8.7c0.2,3.5,0.9,4.2,5.9,4.2c1.3,0,3.6,0,4.9-0.6
			c1.3-0.6,1.9-1.6,2.3-3.7c0.1-0.6,0.2-0.8,0.5-0.8c0.3,0,0.3,0.4,0.3,0.8c0,0.4-0.4,3.9-0.7,4.9c-0.4,1.3-0.8,1.3-2.7,1.3
			c-3.8,0-6.6-0.1-8.6-0.2c-2-0.1-3.2-0.2-4-0.2c-0.1,0-1,0-2,0.1c-1,0-2.2,0.1-2.9,0.1c-0.6,0-0.8-0.1-0.8-0.4
			c0-0.2,0.1-0.3,0.4-0.3c0.5,0,1.1-0.1,1.5-0.2c1-0.2,1.3-1.3,1.5-2.8c0.3-2.1,0.3-6.1,0.3-11V92.7z"/>
		<path class="st0" d="M369.8,115.7c-0.7-0.4-0.8-0.6-0.8-1.9c0-2.5,0.2-4.6,0.3-5.4c0.1-0.6,0.2-0.8,0.4-0.8c0.3,0,0.4,0.2,0.4,0.6
			c0,0.5,0,1.2,0.2,1.9c0.8,3.8,4.1,5.2,7.5,5.2c4.9,0,7.3-3.5,7.3-6.8c0-3.5-1.5-5.5-5.8-9.1l-2.3-1.9c-5.4-4.4-6.6-7.6-6.6-11
			c0-5.4,4.1-9.1,10.5-9.1c2,0,3.5,0.2,4.7,0.5c1,0.2,1.4,0.3,1.8,0.3c0.4,0,0.5,0.1,0.5,0.4c0,0.3-0.2,1.9-0.2,5.4
			c0,0.8-0.1,1.2-0.4,1.2c-0.3,0-0.4-0.3-0.4-0.7c-0.1-0.6-0.4-2-0.7-2.5c-0.3-0.6-1.7-2.7-6.4-2.7c-3.5,0-6.3,2.2-6.3,5.9
			c0,2.9,1.3,4.7,6.2,8.5l1.4,1.1c6,4.7,7.4,7.9,7.4,11.9c0,2.1-0.8,5.9-4.3,8.4c-2.2,1.5-4.9,2.1-7.7,2.1
			C374.2,117.1,371.9,116.7,369.8,115.7z"/>
		<path class="st0" d="M412.8,101.6c0,4.9,0,8.9,0.3,11c0.2,1.5,0.5,2.6,2,2.8c0.7,0.1,1.8,0.2,2.3,0.2c0.3,0,0.4,0.2,0.4,0.3
			c0,0.3-0.3,0.4-0.8,0.4c-2.8,0-6-0.2-6.2-0.2c-0.3,0-3.5,0.2-5,0.2c-0.6,0-0.8-0.1-0.8-0.4c0-0.2,0.1-0.3,0.4-0.3
			c0.5,0,1.1-0.1,1.5-0.2c1-0.2,1.3-1.3,1.5-2.8c0.3-2.1,0.3-6.1,0.3-11V80.1l-7.5,0.1c-3.2,0.1-4.4,0.4-5.2,1.6
			c-0.6,0.9-0.7,1.2-0.9,1.6c-0.2,0.4-0.3,0.5-0.5,0.5c-0.2,0-0.3-0.2-0.3-0.5c0-0.5,1-4.9,1.1-5.3c0.1-0.3,0.3-1,0.5-1
			c0.4,0,0.9,0.5,2.2,0.6c1.5,0.2,3.4,0.3,4,0.3h19.1c1.6,0,2.8-0.1,3.6-0.3c0.8-0.1,1.2-0.3,1.4-0.3c0.3,0,0.3,0.3,0.3,0.6
			c0,1.5-0.2,5-0.2,5.6c0,0.5-0.2,0.7-0.4,0.7c-0.3,0-0.4-0.2-0.4-0.9l-0.1-0.6c-0.2-1.5-1.4-2.7-6.2-2.8l-6.4-0.1V101.6z"/>
		<path class="st0" d="M437.1,92.7c0-7.9,0-9.3-0.1-11c-0.1-1.7-0.5-2.5-2.2-2.9c-0.4-0.1-1.3-0.2-1.7-0.2c-0.2,0-0.4-0.1-0.4-0.3
			c0-0.3,0.3-0.4,0.8-0.4c1.2,0,2.5,0,3.7,0.1l2.1,0.1c0.4,0,10.5,0,11.6-0.1c1-0.1,1.8-0.2,2.2-0.3c0.3-0.1,0.5-0.3,0.7-0.3
			c0.2,0,0.2,0.2,0.2,0.5c0,0.4-0.3,1-0.4,2.4c-0.1,0.5-0.2,2.7-0.3,3.4c-0.1,0.3-0.2,0.6-0.4,0.6c-0.3,0-0.4-0.3-0.4-0.7
			c0-0.4-0.1-1.2-0.3-1.8c-0.4-0.8-0.9-1.4-3.6-1.7c-0.9-0.1-6.4-0.2-7-0.2c-0.2,0-0.3,0.2-0.3,0.5v14c0,0.4,0.1,0.5,0.3,0.5
			c0.7,0,6.9,0,8.1-0.1c1.2-0.1,1.9-0.2,2.4-0.7c0.4-0.4,0.6-0.7,0.8-0.7c0.2,0,0.3,0.1,0.3,0.4s-0.3,1.2-0.4,2.8
			c-0.1,1-0.2,2.9-0.2,3.3c0,0.4,0,1-0.4,1c-0.3,0-0.4-0.2-0.4-0.5c0-0.5,0-1-0.2-1.7c-0.2-0.7-0.7-1.6-2.6-1.8
			c-1.4-0.2-6.4-0.3-7.3-0.3c-0.3,0-0.4,0.2-0.4,0.4v4.5c0,1.7-0.1,7.6,0,8.7c0.2,3.5,0.9,4.2,5.9,4.2c1.3,0,3.6,0,4.9-0.6
			c1.3-0.6,1.9-1.6,2.3-3.7c0.1-0.6,0.2-0.8,0.5-0.8c0.3,0,0.3,0.4,0.3,0.8c0,0.4-0.4,3.9-0.7,4.9c-0.4,1.3-0.8,1.3-2.7,1.3
			c-3.8,0-6.6-0.1-8.6-0.2c-2-0.1-3.2-0.2-4-0.2c-0.1,0-1,0-2,0.1c-1,0-2.2,0.1-2.9,0.1c-0.6,0-0.8-0.1-0.8-0.4
			c0-0.2,0.1-0.3,0.4-0.3c0.5,0,1.1-0.1,1.5-0.2c1-0.2,1.3-1.3,1.5-2.8c0.3-2.1,0.3-6.1,0.3-11V92.7z"/>
		<path class="st0" d="M465.5,92.7c0-7.9,0-9.3-0.1-11c-0.1-1.7-0.5-2.5-2.2-2.9c-0.4-0.1-1.3-0.2-1.7-0.2c-0.2,0-0.4-0.1-0.4-0.3
			c0-0.3,0.3-0.4,0.8-0.4c2.3,0,5.5,0.2,5.7,0.2c0.6,0,4.4-0.2,6-0.2c3.2,0,6.6,0.3,9.3,2.2c1.3,0.9,3.5,3.4,3.5,6.9
			c0,3.8-1.6,7.5-6.1,11.7c4.2,5.3,7.6,9.9,10.6,13c2.7,2.9,4.9,3.5,6.2,3.7c1,0.2,1.7,0.2,2,0.2c0.3,0,0.5,0.2,0.5,0.3
			c0,0.3-0.3,0.4-1.2,0.4h-3.6c-2.8,0-4.1-0.3-5.4-1c-2.2-1.2-4-3.7-6.9-7.5c-2.1-2.8-4.5-6.2-5.5-7.5c-0.2-0.2-0.4-0.3-0.7-0.3
			l-6.3-0.1c-0.3,0-0.4,0.2-0.4,0.4v1.2c0,4.9,0,8.9,0.3,11c0.2,1.5,0.5,2.6,2,2.8c0.7,0.1,1.8,0.2,2.3,0.2c0.3,0,0.4,0.2,0.4,0.3
			c0,0.3-0.3,0.4-0.8,0.4c-2.8,0-6-0.2-6.2-0.2c-0.1,0-3.3,0.2-4.8,0.2c-0.6,0-0.8-0.1-0.8-0.4c0-0.2,0.1-0.3,0.4-0.3
			c0.5,0,1.1-0.1,1.5-0.2c1-0.2,1.3-1.3,1.5-2.8c0.3-2.1,0.3-6.1,0.3-11V92.7z M469.6,97.1c0,0.3,0.1,0.5,0.4,0.6
			c0.8,0.5,3.1,0.8,5.3,0.8c1.2,0,2.6-0.2,3.8-1c1.8-1.2,3.1-4,3.1-7.8c0-6.4-3.4-10.2-8.8-10.2c-1.5,0-2.9,0.2-3.4,0.3
			c-0.3,0.1-0.4,0.3-0.4,0.6V97.1z"/>
	</g>
</g>
</svg>
